<?xml version="1.0" encoding="UTF-8"?>
<svg xmlns="http://www.w3.org/2000/svg" xmlns:xlink="http://www.w3.org/1999/xlink" width="457.5pt" height="108.75pt" viewBox="0 0 457.5 108.75">
<defs>
<clipPath id="clip-0">
<path clip-rule="nonzero" d="M 197 27 L 457.5 27 L 457.5 90 L 197 90 Z M 197 27 "/>
</clipPath>
<clipPath id="clip-1">
<path clip-rule="nonzero" d="M 23 0 L 192 0 L 192 108.75 L 23 108.75 Z M 23 0 "/>
</clipPath>
<clipPath id="clip-2">
<path clip-rule="nonzero" d="M 92 2 L 108 2 L 108 18 L 92 18 Z M 92 2 "/>
</clipPath>
<clipPath id="clip-3">
<path clip-rule="nonzero" d="M 57 1.5 L 57 36 L 40.5 36 L 40.5 53.25 L 26.6875 53.25 C 26.625 53.75 26.578125 54.25 26.53125 54.75 C 25.667969 64.148438 27.308594 72.816406 31.078125 80.226562 L 32.34375 82.5 C 33.101562 83.863281 33.988281 85.140625 34.921875 86.390625 C 35.855469 87.636719 36.1875 88.328125 36.773438 89.15625 C 46.738281 100.359375 61.597656 105.75 78.75 105.75 C 116.734375 105.75 148.976562 88.921875 163.242188 51.117188 C 173.363281 52.15625 183.074219 49.558594 187.5 40.921875 C 180.449219 36.855469 171.390625 38.15625 166.171875 40.78125 L 180 1.5 L 126 36 L 108.75 36 L 108.75 1.5 Z M 57 1.5 "/>
</clipPath>
<clipPath id="clip-4">
<path clip-rule="nonzero" d="M 94 4 L 106 4 L 106 17 L 94 17 Z M 94 4 "/>
</clipPath>
<clipPath id="clip-5">
<path clip-rule="nonzero" d="M 57 1.5 L 57 36 L 40.5 36 L 40.5 53.25 L 26.6875 53.25 C 26.625 53.75 26.578125 54.25 26.53125 54.75 C 25.667969 64.148438 27.308594 72.816406 31.078125 80.226562 L 32.34375 82.5 C 33.101562 83.863281 33.988281 85.140625 34.921875 86.390625 C 35.855469 87.636719 36.1875 88.328125 36.773438 89.15625 C 46.738281 100.359375 61.597656 105.75 78.75 105.75 C 116.734375 105.75 148.976562 88.921875 163.242188 51.117188 C 173.363281 52.15625 183.074219 49.558594 187.5 40.921875 C 180.449219 36.855469 171.390625 38.15625 166.171875 40.78125 L 180 1.5 L 126 36 L 108.75 36 L 108.75 1.5 Z M 57 1.5 "/>
</clipPath>
<clipPath id="clip-6">
<path clip-rule="nonzero" d="M 94 3 L 107 3 L 107 18 L 94 18 Z M 94 3 "/>
</clipPath>
<clipPath id="clip-7">
<path clip-rule="nonzero" d="M 57 1.5 L 57 36 L 40.5 36 L 40.5 53.25 L 26.6875 53.25 C 26.625 53.75 26.578125 54.25 26.53125 54.75 C 25.667969 64.148438 27.308594 72.816406 31.078125 80.226562 L 32.34375 82.5 C 33.101562 83.863281 33.988281 85.140625 34.921875 86.390625 C 35.855469 87.636719 36.1875 88.328125 36.773438 89.15625 C 46.738281 100.359375 61.597656 105.75 78.75 105.75 C 116.734375 105.75 148.976562 88.921875 163.242188 51.117188 C 173.363281 52.15625 183.074219 49.558594 187.5 40.921875 C 180.449219 36.855469 171.390625 38.15625 166.171875 40.78125 L 180 1.5 L 126 36 L 108.75 36 L 108.75 1.5 Z M 57 1.5 "/>
</clipPath>
<clipPath id="clip-8">
<path clip-rule="nonzero" d="M 110 2 L 125 2 L 125 18 L 110 18 Z M 110 2 "/>
</clipPath>
<clipPath id="clip-9">
<path clip-rule="nonzero" d="M 57 1.5 L 57 36 L 40.5 36 L 40.5 53.25 L 26.6875 53.25 C 26.625 53.75 26.578125 54.25 26.53125 54.75 C 25.667969 64.148438 27.308594 72.816406 31.078125 80.226562 L 32.34375 82.5 C 33.101562 83.863281 33.988281 85.140625 34.921875 86.390625 C 35.855469 87.636719 36.1875 88.328125 36.773438 89.15625 C 46.738281 100.359375 61.597656 105.75 78.75 105.75 C 116.734375 105.75 148.976562 88.921875 163.242188 51.117188 C 173.363281 52.15625 183.074219 49.558594 187.5 40.921875 C 180.449219 36.855469 171.390625 38.15625 166.171875 40.78125 L 180 1.5 L 126 36 L 108.75 36 L 108.75 1.5 Z M 57 1.5 "/>
</clipPath>
<clipPath id="clip-10">
<path clip-rule="nonzero" d="M 111 4 L 124 4 L 124 17 L 111 17 Z M 111 4 "/>
</clipPath>
<clipPath id="clip-11">
<path clip-rule="nonzero" d="M 57 1.5 L 57 36 L 40.5 36 L 40.5 53.25 L 26.6875 53.25 C 26.625 53.75 26.578125 54.25 26.53125 54.75 C 25.667969 64.148438 27.308594 72.816406 31.078125 80.226562 L 32.34375 82.5 C 33.101562 83.863281 33.988281 85.140625 34.921875 86.390625 C 35.855469 87.636719 36.1875 88.328125 36.773438 89.15625 C 46.738281 100.359375 61.597656 105.75 78.75 105.75 C 116.734375 105.75 148.976562 88.921875 163.242188 51.117188 C 173.363281 52.15625 183.074219 49.558594 187.5 40.921875 C 180.449219 36.855469 171.390625 38.15625 166.171875 40.78125 L 180 1.5 L 126 36 L 108.75 36 L 108.75 1.5 Z M 57 1.5 "/>
</clipPath>
<clipPath id="clip-12">
<path clip-rule="nonzero" d="M 111 3 L 124 3 L 124 18 L 111 18 Z M 111 3 "/>
</clipPath>
<clipPath id="clip-13">
<path clip-rule="nonzero" d="M 57 1.5 L 57 36 L 40.5 36 L 40.5 53.25 L 26.6875 53.25 C 26.625 53.75 26.578125 54.25 26.53125 54.75 C 25.667969 64.148438 27.308594 72.816406 31.078125 80.226562 L 32.34375 82.5 C 33.101562 83.863281 33.988281 85.140625 34.921875 86.390625 C 35.855469 87.636719 36.1875 88.328125 36.773438 89.15625 C 46.738281 100.359375 61.597656 105.75 78.75 105.75 C 116.734375 105.75 148.976562 88.921875 163.242188 51.117188 C 173.363281 52.15625 183.074219 49.558594 187.5 40.921875 C 180.449219 36.855469 171.390625 38.15625 166.171875 40.78125 L 180 1.5 L 126 36 L 108.75 36 L 108.75 1.5 Z M 57 1.5 "/>
</clipPath>
<clipPath id="clip-14">
<path clip-rule="nonzero" d="M 26 20 L 40 20 L 40 35 L 26 35 Z M 26 20 "/>
</clipPath>
<clipPath id="clip-15">
<path clip-rule="nonzero" d="M 57 1.5 L 57 36 L 40.5 36 L 40.5 53.25 L 26.6875 53.25 C 26.625 53.75 26.578125 54.25 26.53125 54.75 C 25.667969 64.148438 27.308594 72.816406 31.078125 80.226562 L 32.34375 82.5 C 33.101562 83.863281 33.988281 85.140625 34.921875 86.390625 C 35.855469 87.636719 36.1875 88.328125 36.773438 89.15625 C 46.738281 100.359375 61.597656 105.75 78.75 105.75 C 116.734375 105.75 148.976562 88.921875 163.242188 51.117188 C 173.363281 52.15625 183.074219 49.558594 187.5 40.921875 C 180.449219 36.855469 171.390625 38.15625 166.171875 40.78125 L 180 1.5 L 126 36 L 108.75 36 L 108.75 1.5 Z M 57 1.5 "/>
</clipPath>
<clipPath id="clip-16">
<path clip-rule="nonzero" d="M 26 37 L 40 37 L 40 53 L 26 53 Z M 26 37 "/>
</clipPath>
<clipPath id="clip-17">
<path clip-rule="nonzero" d="M 57 1.5 L 57 36 L 40.5 36 L 40.5 53.25 L 26.6875 53.25 C 26.625 53.75 26.578125 54.25 26.53125 54.75 C 25.667969 64.148438 27.308594 72.816406 31.078125 80.226562 L 32.34375 82.5 C 33.101562 83.863281 33.988281 85.140625 34.921875 86.390625 C 35.855469 87.636719 36.1875 88.328125 36.773438 89.15625 C 46.738281 100.359375 61.597656 105.75 78.75 105.75 C 116.734375 105.75 148.976562 88.921875 163.242188 51.117188 C 173.363281 52.15625 183.074219 49.558594 187.5 40.921875 C 180.449219 36.855469 171.390625 38.15625 166.171875 40.78125 L 180 1.5 L 126 36 L 108.75 36 L 108.75 1.5 Z M 57 1.5 "/>
</clipPath>
<clipPath id="clip-18">
<path clip-rule="nonzero" d="M 26 21 L 38 21 L 38 34 L 26 34 Z M 26 21 "/>
</clipPath>
<clipPath id="clip-19">
<path clip-rule="nonzero" d="M 57 1.5 L 57 36 L 40.5 36 L 40.5 53.25 L 26.6875 53.25 C 26.625 53.75 26.578125 54.25 26.53125 54.75 C 25.667969 64.148438 27.308594 72.816406 31.078125 80.226562 L 32.34375 82.5 C 33.101562 83.863281 33.988281 85.140625 34.921875 86.390625 C 35.855469 87.636719 36.1875 88.328125 36.773438 89.15625 C 46.738281 100.359375 61.597656 105.75 78.75 105.75 C 116.734375 105.75 148.976562 88.921875 163.242188 51.117188 C 173.363281 52.15625 183.074219 49.558594 187.5 40.921875 C 180.449219 36.855469 171.390625 38.15625 166.171875 40.78125 L 180 1.5 L 126 36 L 108.75 36 L 108.75 1.5 Z M 57 1.5 "/>
</clipPath>
<clipPath id="clip-20">
<path clip-rule="nonzero" d="M 26 20 L 38 20 L 38 35 L 26 35 Z M 26 20 "/>
</clipPath>
<clipPath id="clip-21">
<path clip-rule="nonzero" d="M 57 1.5 L 57 36 L 40.5 36 L 40.5 53.25 L 26.6875 53.25 C 26.625 53.75 26.578125 54.25 26.53125 54.75 C 25.667969 64.148438 27.308594 72.816406 31.078125 80.226562 L 32.34375 82.5 C 33.101562 83.863281 33.988281 85.140625 34.921875 86.390625 C 35.855469 87.636719 36.1875 88.328125 36.773438 89.15625 C 46.738281 100.359375 61.597656 105.75 78.75 105.75 C 116.734375 105.75 148.976562 88.921875 163.242188 51.117188 C 173.363281 52.15625 183.074219 49.558594 187.5 40.921875 C 180.449219 36.855469 171.390625 38.15625 166.171875 40.78125 L 180 1.5 L 126 36 L 108.75 36 L 108.75 1.5 Z M 57 1.5 "/>
</clipPath>
<clipPath id="clip-22">
<path clip-rule="nonzero" d="M 26 38 L 38 38 L 38 51 L 26 51 Z M 26 38 "/>
</clipPath>
<clipPath id="clip-23">
<path clip-rule="nonzero" d="M 57 1.5 L 57 36 L 40.5 36 L 40.5 53.25 L 26.6875 53.25 C 26.625 53.75 26.578125 54.25 26.53125 54.75 C 25.667969 64.148438 27.308594 72.816406 31.078125 80.226562 L 32.34375 82.5 C 33.101562 83.863281 33.988281 85.140625 34.921875 86.390625 C 35.855469 87.636719 36.1875 88.328125 36.773438 89.15625 C 46.738281 100.359375 61.597656 105.75 78.75 105.75 C 116.734375 105.75 148.976562 88.921875 163.242188 51.117188 C 173.363281 52.15625 183.074219 49.558594 187.5 40.921875 C 180.449219 36.855469 171.390625 38.15625 166.171875 40.78125 L 180 1.5 L 126 36 L 108.75 36 L 108.75 1.5 Z M 57 1.5 "/>
</clipPath>
<clipPath id="clip-24">
<path clip-rule="nonzero" d="M 26 37 L 38 37 L 38 52 L 26 52 Z M 26 37 "/>
</clipPath>
<clipPath id="clip-25">
<path clip-rule="nonzero" d="M 57 1.5 L 57 36 L 40.5 36 L 40.5 53.25 L 26.6875 53.25 C 26.625 53.75 26.578125 54.25 26.53125 54.75 C 25.667969 64.148438 27.308594 72.816406 31.078125 80.226562 L 32.34375 82.5 C 33.101562 83.863281 33.988281 85.140625 34.921875 86.390625 C 35.855469 87.636719 36.1875 88.328125 36.773438 89.15625 C 46.738281 100.359375 61.597656 105.75 78.75 105.75 C 116.734375 105.75 148.976562 88.921875 163.242188 51.117188 C 173.363281 52.15625 183.074219 49.558594 187.5 40.921875 C 180.449219 36.855469 171.390625 38.15625 166.171875 40.78125 L 180 1.5 L 126 36 L 108.75 36 L 108.75 1.5 Z M 57 1.5 "/>
</clipPath>
<clipPath id="clip-26">
<path clip-rule="nonzero" d="M 41 37 L 57 37 L 57 53 L 41 53 Z M 41 37 "/>
</clipPath>
<clipPath id="clip-27">
<path clip-rule="nonzero" d="M 57 1.5 L 57 36 L 40.5 36 L 40.5 53.25 L 26.6875 53.25 C 26.625 53.75 26.578125 54.25 26.53125 54.75 C 25.667969 64.148438 27.308594 72.816406 31.078125 80.226562 L 32.34375 82.5 C 33.101562 83.863281 33.988281 85.140625 34.921875 86.390625 C 35.855469 87.636719 36.1875 88.328125 36.773438 89.15625 C 46.738281 100.359375 61.597656 105.75 78.75 105.75 C 116.734375 105.75 148.976562 88.921875 163.242188 51.117188 C 173.363281 52.15625 183.074219 49.558594 187.5 40.921875 C 180.449219 36.855469 171.390625 38.15625 166.171875 40.78125 L 180 1.5 L 126 36 L 108.75 36 L 108.75 1.5 Z M 57 1.5 "/>
</clipPath>
<clipPath id="clip-28">
<path clip-rule="nonzero" d="M 41 20 L 57 20 L 57 35 L 41 35 Z M 41 20 "/>
</clipPath>
<clipPath id="clip-29">
<path clip-rule="nonzero" d="M 57 1.5 L 57 36 L 40.5 36 L 40.5 53.25 L 26.6875 53.25 C 26.625 53.75 26.578125 54.25 26.53125 54.75 C 25.667969 64.148438 27.308594 72.816406 31.078125 80.226562 L 32.34375 82.5 C 33.101562 83.863281 33.988281 85.140625 34.921875 86.390625 C 35.855469 87.636719 36.1875 88.328125 36.773438 89.15625 C 46.738281 100.359375 61.597656 105.75 78.75 105.75 C 116.734375 105.75 148.976562 88.921875 163.242188 51.117188 C 173.363281 52.15625 183.074219 49.558594 187.5 40.921875 C 180.449219 36.855469 171.390625 38.15625 166.171875 40.78125 L 180 1.5 L 126 36 L 108.75 36 L 108.75 1.5 Z M 57 1.5 "/>
</clipPath>
<clipPath id="clip-30">
<path clip-rule="nonzero" d="M 43 38 L 55 38 L 55 51 L 43 51 Z M 43 38 "/>
</clipPath>
<clipPath id="clip-31">
<path clip-rule="nonzero" d="M 57 1.5 L 57 36 L 40.5 36 L 40.5 53.25 L 26.6875 53.25 C 26.625 53.75 26.578125 54.25 26.53125 54.75 C 25.667969 64.148438 27.308594 72.816406 31.078125 80.226562 L 32.34375 82.5 C 33.101562 83.863281 33.988281 85.140625 34.921875 86.390625 C 35.855469 87.636719 36.1875 88.328125 36.773438 89.15625 C 46.738281 100.359375 61.597656 105.75 78.75 105.75 C 116.734375 105.75 148.976562 88.921875 163.242188 51.117188 C 173.363281 52.15625 183.074219 49.558594 187.5 40.921875 C 180.449219 36.855469 171.390625 38.15625 166.171875 40.78125 L 180 1.5 L 126 36 L 108.75 36 L 108.75 1.5 Z M 57 1.5 "/>
</clipPath>
<clipPath id="clip-32">
<path clip-rule="nonzero" d="M 42 37 L 56 37 L 56 52 L 42 52 Z M 42 37 "/>
</clipPath>
<clipPath id="clip-33">
<path clip-rule="nonzero" d="M 57 1.5 L 57 36 L 40.5 36 L 40.5 53.25 L 26.6875 53.25 C 26.625 53.75 26.578125 54.25 26.53125 54.75 C 25.667969 64.148438 27.308594 72.816406 31.078125 80.226562 L 32.34375 82.5 C 33.101562 83.863281 33.988281 85.140625 34.921875 86.390625 C 35.855469 87.636719 36.1875 88.328125 36.773438 89.15625 C 46.738281 100.359375 61.597656 105.75 78.75 105.75 C 116.734375 105.75 148.976562 88.921875 163.242188 51.117188 C 173.363281 52.15625 183.074219 49.558594 187.5 40.921875 C 180.449219 36.855469 171.390625 38.15625 166.171875 40.78125 L 180 1.5 L 126 36 L 108.75 36 L 108.75 1.5 Z M 57 1.5 "/>
</clipPath>
<clipPath id="clip-34">
<path clip-rule="nonzero" d="M 43 21 L 55 21 L 55 34 L 43 34 Z M 43 21 "/>
</clipPath>
<clipPath id="clip-35">
<path clip-rule="nonzero" d="M 57 1.5 L 57 36 L 40.5 36 L 40.5 53.25 L 26.6875 53.25 C 26.625 53.75 26.578125 54.25 26.53125 54.75 C 25.667969 64.148438 27.308594 72.816406 31.078125 80.226562 L 32.34375 82.5 C 33.101562 83.863281 33.988281 85.140625 34.921875 86.390625 C 35.855469 87.636719 36.1875 88.328125 36.773438 89.15625 C 46.738281 100.359375 61.597656 105.75 78.75 105.75 C 116.734375 105.75 148.976562 88.921875 163.242188 51.117188 C 173.363281 52.15625 183.074219 49.558594 187.5 40.921875 C 180.449219 36.855469 171.390625 38.15625 166.171875 40.78125 L 180 1.5 L 126 36 L 108.75 36 L 108.75 1.5 Z M 57 1.5 "/>
</clipPath>
<clipPath id="clip-36">
<path clip-rule="nonzero" d="M 42 20 L 56 20 L 56 35 L 42 35 Z M 42 20 "/>
</clipPath>
<clipPath id="clip-37">
<path clip-rule="nonzero" d="M 57 1.5 L 57 36 L 40.5 36 L 40.5 53.25 L 26.6875 53.25 C 26.625 53.75 26.578125 54.25 26.53125 54.75 C 25.667969 64.148438 27.308594 72.816406 31.078125 80.226562 L 32.34375 82.5 C 33.101562 83.863281 33.988281 85.140625 34.921875 86.390625 C 35.855469 87.636719 36.1875 88.328125 36.773438 89.15625 C 46.738281 100.359375 61.597656 105.75 78.75 105.75 C 116.734375 105.75 148.976562 88.921875 163.242188 51.117188 C 173.363281 52.15625 183.074219 49.558594 187.5 40.921875 C 180.449219 36.855469 171.390625 38.15625 166.171875 40.78125 L 180 1.5 L 126 36 L 108.75 36 L 108.75 1.5 Z M 57 1.5 "/>
</clipPath>
<clipPath id="clip-38">
<path clip-rule="nonzero" d="M 58 20 L 74 20 L 74 35 L 58 35 Z M 58 20 "/>
</clipPath>
<clipPath id="clip-39">
<path clip-rule="nonzero" d="M 57 1.5 L 57 36 L 40.5 36 L 40.5 53.25 L 26.6875 53.25 C 26.625 53.75 26.578125 54.25 26.53125 54.75 C 25.667969 64.148438 27.308594 72.816406 31.078125 80.226562 L 32.34375 82.5 C 33.101562 83.863281 33.988281 85.140625 34.921875 86.390625 C 35.855469 87.636719 36.1875 88.328125 36.773438 89.15625 C 46.738281 100.359375 61.597656 105.75 78.75 105.75 C 116.734375 105.75 148.976562 88.921875 163.242188 51.117188 C 173.363281 52.15625 183.074219 49.558594 187.5 40.921875 C 180.449219 36.855469 171.390625 38.15625 166.171875 40.78125 L 180 1.5 L 126 36 L 108.75 36 L 108.75 1.5 Z M 57 1.5 "/>
</clipPath>
<clipPath id="clip-40">
<path clip-rule="nonzero" d="M 58 37 L 74 37 L 74 53 L 58 53 Z M 58 37 "/>
</clipPath>
<clipPath id="clip-41">
<path clip-rule="nonzero" d="M 57 1.5 L 57 36 L 40.5 36 L 40.5 53.25 L 26.6875 53.25 C 26.625 53.75 26.578125 54.25 26.53125 54.75 C 25.667969 64.148438 27.308594 72.816406 31.078125 80.226562 L 32.34375 82.5 C 33.101562 83.863281 33.988281 85.140625 34.921875 86.390625 C 35.855469 87.636719 36.1875 88.328125 36.773438 89.15625 C 46.738281 100.359375 61.597656 105.75 78.75 105.75 C 116.734375 105.75 148.976562 88.921875 163.242188 51.117188 C 173.363281 52.15625 183.074219 49.558594 187.5 40.921875 C 180.449219 36.855469 171.390625 38.15625 166.171875 40.78125 L 180 1.5 L 126 36 L 108.75 36 L 108.75 1.5 Z M 57 1.5 "/>
</clipPath>
<clipPath id="clip-42">
<path clip-rule="nonzero" d="M 60 21 L 72 21 L 72 34 L 60 34 Z M 60 21 "/>
</clipPath>
<clipPath id="clip-43">
<path clip-rule="nonzero" d="M 57 1.5 L 57 36 L 40.5 36 L 40.5 53.25 L 26.6875 53.25 C 26.625 53.75 26.578125 54.25 26.53125 54.75 C 25.667969 64.148438 27.308594 72.816406 31.078125 80.226562 L 32.34375 82.5 C 33.101562 83.863281 33.988281 85.140625 34.921875 86.390625 C 35.855469 87.636719 36.1875 88.328125 36.773438 89.15625 C 46.738281 100.359375 61.597656 105.75 78.75 105.75 C 116.734375 105.75 148.976562 88.921875 163.242188 51.117188 C 173.363281 52.15625 183.074219 49.558594 187.5 40.921875 C 180.449219 36.855469 171.390625 38.15625 166.171875 40.78125 L 180 1.5 L 126 36 L 108.75 36 L 108.75 1.5 Z M 57 1.5 "/>
</clipPath>
<clipPath id="clip-44">
<path clip-rule="nonzero" d="M 59 20 L 73 20 L 73 35 L 59 35 Z M 59 20 "/>
</clipPath>
<clipPath id="clip-45">
<path clip-rule="nonzero" d="M 57 1.5 L 57 36 L 40.5 36 L 40.5 53.25 L 26.6875 53.25 C 26.625 53.75 26.578125 54.25 26.53125 54.75 C 25.667969 64.148438 27.308594 72.816406 31.078125 80.226562 L 32.34375 82.5 C 33.101562 83.863281 33.988281 85.140625 34.921875 86.390625 C 35.855469 87.636719 36.1875 88.328125 36.773438 89.15625 C 46.738281 100.359375 61.597656 105.75 78.75 105.75 C 116.734375 105.75 148.976562 88.921875 163.242188 51.117188 C 173.363281 52.15625 183.074219 49.558594 187.5 40.921875 C 180.449219 36.855469 171.390625 38.15625 166.171875 40.78125 L 180 1.5 L 126 36 L 108.75 36 L 108.75 1.5 Z M 57 1.5 "/>
</clipPath>
<clipPath id="clip-46">
<path clip-rule="nonzero" d="M 60 38 L 72 38 L 72 51 L 60 51 Z M 60 38 "/>
</clipPath>
<clipPath id="clip-47">
<path clip-rule="nonzero" d="M 57 1.5 L 57 36 L 40.5 36 L 40.5 53.25 L 26.6875 53.25 C 26.625 53.75 26.578125 54.25 26.53125 54.75 C 25.667969 64.148438 27.308594 72.816406 31.078125 80.226562 L 32.34375 82.5 C 33.101562 83.863281 33.988281 85.140625 34.921875 86.390625 C 35.855469 87.636719 36.1875 88.328125 36.773438 89.15625 C 46.738281 100.359375 61.597656 105.75 78.75 105.75 C 116.734375 105.75 148.976562 88.921875 163.242188 51.117188 C 173.363281 52.15625 183.074219 49.558594 187.5 40.921875 C 180.449219 36.855469 171.390625 38.15625 166.171875 40.78125 L 180 1.5 L 126 36 L 108.75 36 L 108.75 1.5 Z M 57 1.5 "/>
</clipPath>
<clipPath id="clip-48">
<path clip-rule="nonzero" d="M 59 37 L 73 37 L 73 52 L 59 52 Z M 59 37 "/>
</clipPath>
<clipPath id="clip-49">
<path clip-rule="nonzero" d="M 57 1.5 L 57 36 L 40.5 36 L 40.5 53.25 L 26.6875 53.25 C 26.625 53.75 26.578125 54.25 26.53125 54.75 C 25.667969 64.148438 27.308594 72.816406 31.078125 80.226562 L 32.34375 82.5 C 33.101562 83.863281 33.988281 85.140625 34.921875 86.390625 C 35.855469 87.636719 36.1875 88.328125 36.773438 89.15625 C 46.738281 100.359375 61.597656 105.75 78.75 105.75 C 116.734375 105.75 148.976562 88.921875 163.242188 51.117188 C 173.363281 52.15625 183.074219 49.558594 187.5 40.921875 C 180.449219 36.855469 171.390625 38.15625 166.171875 40.78125 L 180 1.5 L 126 36 L 108.75 36 L 108.75 1.5 Z M 57 1.5 "/>
</clipPath>
<clipPath id="clip-50">
<path clip-rule="nonzero" d="M 75 37 L 91 37 L 91 53 L 75 53 Z M 75 37 "/>
</clipPath>
<clipPath id="clip-51">
<path clip-rule="nonzero" d="M 57 1.5 L 57 36 L 40.5 36 L 40.5 53.25 L 26.6875 53.25 C 26.625 53.75 26.578125 54.25 26.53125 54.75 C 25.667969 64.148438 27.308594 72.816406 31.078125 80.226562 L 32.34375 82.5 C 33.101562 83.863281 33.988281 85.140625 34.921875 86.390625 C 35.855469 87.636719 36.1875 88.328125 36.773438 89.15625 C 46.738281 100.359375 61.597656 105.75 78.75 105.75 C 116.734375 105.75 148.976562 88.921875 163.242188 51.117188 C 173.363281 52.15625 183.074219 49.558594 187.5 40.921875 C 180.449219 36.855469 171.390625 38.15625 166.171875 40.78125 L 180 1.5 L 126 36 L 108.75 36 L 108.75 1.5 Z M 57 1.5 "/>
</clipPath>
<clipPath id="clip-52">
<path clip-rule="nonzero" d="M 75 20 L 91 20 L 91 35 L 75 35 Z M 75 20 "/>
</clipPath>
<clipPath id="clip-53">
<path clip-rule="nonzero" d="M 57 1.5 L 57 36 L 40.5 36 L 40.5 53.25 L 26.6875 53.25 C 26.625 53.75 26.578125 54.25 26.53125 54.75 C 25.667969 64.148438 27.308594 72.816406 31.078125 80.226562 L 32.34375 82.5 C 33.101562 83.863281 33.988281 85.140625 34.921875 86.390625 C 35.855469 87.636719 36.1875 88.328125 36.773438 89.15625 C 46.738281 100.359375 61.597656 105.75 78.75 105.75 C 116.734375 105.75 148.976562 88.921875 163.242188 51.117188 C 173.363281 52.15625 183.074219 49.558594 187.5 40.921875 C 180.449219 36.855469 171.390625 38.15625 166.171875 40.78125 L 180 1.5 L 126 36 L 108.75 36 L 108.75 1.5 Z M 57 1.5 "/>
</clipPath>
<clipPath id="clip-54">
<path clip-rule="nonzero" d="M 77 38 L 89 38 L 89 51 L 77 51 Z M 77 38 "/>
</clipPath>
<clipPath id="clip-55">
<path clip-rule="nonzero" d="M 57 1.5 L 57 36 L 40.5 36 L 40.5 53.25 L 26.6875 53.25 C 26.625 53.75 26.578125 54.25 26.53125 54.75 C 25.667969 64.148438 27.308594 72.816406 31.078125 80.226562 L 32.34375 82.5 C 33.101562 83.863281 33.988281 85.140625 34.921875 86.390625 C 35.855469 87.636719 36.1875 88.328125 36.773438 89.15625 C 46.738281 100.359375 61.597656 105.75 78.75 105.75 C 116.734375 105.75 148.976562 88.921875 163.242188 51.117188 C 173.363281 52.15625 183.074219 49.558594 187.5 40.921875 C 180.449219 36.855469 171.390625 38.15625 166.171875 40.78125 L 180 1.5 L 126 36 L 108.75 36 L 108.75 1.5 Z M 57 1.5 "/>
</clipPath>
<clipPath id="clip-56">
<path clip-rule="nonzero" d="M 76 37 L 90 37 L 90 52 L 76 52 Z M 76 37 "/>
</clipPath>
<clipPath id="clip-57">
<path clip-rule="nonzero" d="M 57 1.5 L 57 36 L 40.5 36 L 40.5 53.25 L 26.6875 53.25 C 26.625 53.75 26.578125 54.25 26.53125 54.75 C 25.667969 64.148438 27.308594 72.816406 31.078125 80.226562 L 32.34375 82.5 C 33.101562 83.863281 33.988281 85.140625 34.921875 86.390625 C 35.855469 87.636719 36.1875 88.328125 36.773438 89.15625 C 46.738281 100.359375 61.597656 105.75 78.75 105.75 C 116.734375 105.75 148.976562 88.921875 163.242188 51.117188 C 173.363281 52.15625 183.074219 49.558594 187.5 40.921875 C 180.449219 36.855469 171.390625 38.15625 166.171875 40.78125 L 180 1.5 L 126 36 L 108.75 36 L 108.75 1.5 Z M 57 1.5 "/>
</clipPath>
<clipPath id="clip-58">
<path clip-rule="nonzero" d="M 77 21 L 89 21 L 89 34 L 77 34 Z M 77 21 "/>
</clipPath>
<clipPath id="clip-59">
<path clip-rule="nonzero" d="M 57 1.5 L 57 36 L 40.5 36 L 40.5 53.25 L 26.6875 53.25 C 26.625 53.75 26.578125 54.25 26.53125 54.75 C 25.667969 64.148438 27.308594 72.816406 31.078125 80.226562 L 32.34375 82.5 C 33.101562 83.863281 33.988281 85.140625 34.921875 86.390625 C 35.855469 87.636719 36.1875 88.328125 36.773438 89.15625 C 46.738281 100.359375 61.597656 105.75 78.75 105.75 C 116.734375 105.75 148.976562 88.921875 163.242188 51.117188 C 173.363281 52.15625 183.074219 49.558594 187.5 40.921875 C 180.449219 36.855469 171.390625 38.15625 166.171875 40.78125 L 180 1.5 L 126 36 L 108.75 36 L 108.75 1.5 Z M 57 1.5 "/>
</clipPath>
<clipPath id="clip-60">
<path clip-rule="nonzero" d="M 76 20 L 90 20 L 90 35 L 76 35 Z M 76 20 "/>
</clipPath>
<clipPath id="clip-61">
<path clip-rule="nonzero" d="M 57 1.5 L 57 36 L 40.5 36 L 40.5 53.25 L 26.6875 53.25 C 26.625 53.75 26.578125 54.25 26.53125 54.75 C 25.667969 64.148438 27.308594 72.816406 31.078125 80.226562 L 32.34375 82.5 C 33.101562 83.863281 33.988281 85.140625 34.921875 86.390625 C 35.855469 87.636719 36.1875 88.328125 36.773438 89.15625 C 46.738281 100.359375 61.597656 105.75 78.75 105.75 C 116.734375 105.75 148.976562 88.921875 163.242188 51.117188 C 173.363281 52.15625 183.074219 49.558594 187.5 40.921875 C 180.449219 36.855469 171.390625 38.15625 166.171875 40.78125 L 180 1.5 L 126 36 L 108.75 36 L 108.75 1.5 Z M 57 1.5 "/>
</clipPath>
<clipPath id="clip-62">
<path clip-rule="nonzero" d="M 92 20 L 108 20 L 108 35 L 92 35 Z M 92 20 "/>
</clipPath>
<clipPath id="clip-63">
<path clip-rule="nonzero" d="M 57 1.5 L 57 36 L 40.5 36 L 40.5 53.25 L 26.6875 53.25 C 26.625 53.75 26.578125 54.25 26.53125 54.75 C 25.667969 64.148438 27.308594 72.816406 31.078125 80.226562 L 32.34375 82.5 C 33.101562 83.863281 33.988281 85.140625 34.921875 86.390625 C 35.855469 87.636719 36.1875 88.328125 36.773438 89.15625 C 46.738281 100.359375 61.597656 105.75 78.75 105.75 C 116.734375 105.75 148.976562 88.921875 163.242188 51.117188 C 173.363281 52.15625 183.074219 49.558594 187.5 40.921875 C 180.449219 36.855469 171.390625 38.15625 166.171875 40.78125 L 180 1.5 L 126 36 L 108.75 36 L 108.75 1.5 Z M 57 1.5 "/>
</clipPath>
<clipPath id="clip-64">
<path clip-rule="nonzero" d="M 92 37 L 108 37 L 108 53 L 92 53 Z M 92 37 "/>
</clipPath>
<clipPath id="clip-65">
<path clip-rule="nonzero" d="M 57 1.5 L 57 36 L 40.5 36 L 40.5 53.25 L 26.6875 53.25 C 26.625 53.75 26.578125 54.25 26.53125 54.75 C 25.667969 64.148438 27.308594 72.816406 31.078125 80.226562 L 32.34375 82.5 C 33.101562 83.863281 33.988281 85.140625 34.921875 86.390625 C 35.855469 87.636719 36.1875 88.328125 36.773438 89.15625 C 46.738281 100.359375 61.597656 105.75 78.75 105.75 C 116.734375 105.75 148.976562 88.921875 163.242188 51.117188 C 173.363281 52.15625 183.074219 49.558594 187.5 40.921875 C 180.449219 36.855469 171.390625 38.15625 166.171875 40.78125 L 180 1.5 L 126 36 L 108.75 36 L 108.75 1.5 Z M 57 1.5 "/>
</clipPath>
<clipPath id="clip-66">
<path clip-rule="nonzero" d="M 94 21 L 106 21 L 106 34 L 94 34 Z M 94 21 "/>
</clipPath>
<clipPath id="clip-67">
<path clip-rule="nonzero" d="M 57 1.5 L 57 36 L 40.5 36 L 40.5 53.25 L 26.6875 53.25 C 26.625 53.75 26.578125 54.25 26.53125 54.75 C 25.667969 64.148438 27.308594 72.816406 31.078125 80.226562 L 32.34375 82.5 C 33.101562 83.863281 33.988281 85.140625 34.921875 86.390625 C 35.855469 87.636719 36.1875 88.328125 36.773438 89.15625 C 46.738281 100.359375 61.597656 105.75 78.75 105.75 C 116.734375 105.75 148.976562 88.921875 163.242188 51.117188 C 173.363281 52.15625 183.074219 49.558594 187.5 40.921875 C 180.449219 36.855469 171.390625 38.15625 166.171875 40.78125 L 180 1.5 L 126 36 L 108.75 36 L 108.75 1.5 Z M 57 1.5 "/>
</clipPath>
<clipPath id="clip-68">
<path clip-rule="nonzero" d="M 94 20 L 107 20 L 107 35 L 94 35 Z M 94 20 "/>
</clipPath>
<clipPath id="clip-69">
<path clip-rule="nonzero" d="M 57 1.5 L 57 36 L 40.5 36 L 40.5 53.25 L 26.6875 53.25 C 26.625 53.75 26.578125 54.25 26.53125 54.75 C 25.667969 64.148438 27.308594 72.816406 31.078125 80.226562 L 32.34375 82.5 C 33.101562 83.863281 33.988281 85.140625 34.921875 86.390625 C 35.855469 87.636719 36.1875 88.328125 36.773438 89.15625 C 46.738281 100.359375 61.597656 105.75 78.75 105.75 C 116.734375 105.75 148.976562 88.921875 163.242188 51.117188 C 173.363281 52.15625 183.074219 49.558594 187.5 40.921875 C 180.449219 36.855469 171.390625 38.15625 166.171875 40.78125 L 180 1.5 L 126 36 L 108.75 36 L 108.75 1.5 Z M 57 1.5 "/>
</clipPath>
<clipPath id="clip-70">
<path clip-rule="nonzero" d="M 94 38 L 106 38 L 106 51 L 94 51 Z M 94 38 "/>
</clipPath>
<clipPath id="clip-71">
<path clip-rule="nonzero" d="M 57 1.5 L 57 36 L 40.5 36 L 40.5 53.25 L 26.6875 53.25 C 26.625 53.75 26.578125 54.25 26.53125 54.75 C 25.667969 64.148438 27.308594 72.816406 31.078125 80.226562 L 32.34375 82.5 C 33.101562 83.863281 33.988281 85.140625 34.921875 86.390625 C 35.855469 87.636719 36.1875 88.328125 36.773438 89.15625 C 46.738281 100.359375 61.597656 105.75 78.75 105.75 C 116.734375 105.75 148.976562 88.921875 163.242188 51.117188 C 173.363281 52.15625 183.074219 49.558594 187.5 40.921875 C 180.449219 36.855469 171.390625 38.15625 166.171875 40.78125 L 180 1.5 L 126 36 L 108.75 36 L 108.75 1.5 Z M 57 1.5 "/>
</clipPath>
<clipPath id="clip-72">
<path clip-rule="nonzero" d="M 94 37 L 107 37 L 107 52 L 94 52 Z M 94 37 "/>
</clipPath>
<clipPath id="clip-73">
<path clip-rule="nonzero" d="M 57 1.5 L 57 36 L 40.5 36 L 40.5 53.25 L 26.6875 53.25 C 26.625 53.75 26.578125 54.25 26.53125 54.75 C 25.667969 64.148438 27.308594 72.816406 31.078125 80.226562 L 32.34375 82.5 C 33.101562 83.863281 33.988281 85.140625 34.921875 86.390625 C 35.855469 87.636719 36.1875 88.328125 36.773438 89.15625 C 46.738281 100.359375 61.597656 105.75 78.75 105.75 C 116.734375 105.75 148.976562 88.921875 163.242188 51.117188 C 173.363281 52.15625 183.074219 49.558594 187.5 40.921875 C 180.449219 36.855469 171.390625 38.15625 166.171875 40.78125 L 180 1.5 L 126 36 L 108.75 36 L 108.75 1.5 Z M 57 1.5 "/>
</clipPath>
<clipPath id="clip-74">
<path clip-rule="nonzero" d="M 110 37 L 125 37 L 125 53 L 110 53 Z M 110 37 "/>
</clipPath>
<clipPath id="clip-75">
<path clip-rule="nonzero" d="M 57 1.5 L 57 36 L 40.5 36 L 40.5 53.25 L 26.6875 53.25 C 26.625 53.75 26.578125 54.25 26.53125 54.75 C 25.667969 64.148438 27.308594 72.816406 31.078125 80.226562 L 32.34375 82.5 C 33.101562 83.863281 33.988281 85.140625 34.921875 86.390625 C 35.855469 87.636719 36.1875 88.328125 36.773438 89.15625 C 46.738281 100.359375 61.597656 105.75 78.75 105.75 C 116.734375 105.75 148.976562 88.921875 163.242188 51.117188 C 173.363281 52.15625 183.074219 49.558594 187.5 40.921875 C 180.449219 36.855469 171.390625 38.15625 166.171875 40.78125 L 180 1.5 L 126 36 L 108.75 36 L 108.75 1.5 Z M 57 1.5 "/>
</clipPath>
<clipPath id="clip-76">
<path clip-rule="nonzero" d="M 110 20 L 125 20 L 125 35 L 110 35 Z M 110 20 "/>
</clipPath>
<clipPath id="clip-77">
<path clip-rule="nonzero" d="M 57 1.5 L 57 36 L 40.5 36 L 40.5 53.25 L 26.6875 53.25 C 26.625 53.75 26.578125 54.25 26.53125 54.75 C 25.667969 64.148438 27.308594 72.816406 31.078125 80.226562 L 32.34375 82.5 C 33.101562 83.863281 33.988281 85.140625 34.921875 86.390625 C 35.855469 87.636719 36.1875 88.328125 36.773438 89.15625 C 46.738281 100.359375 61.597656 105.75 78.75 105.75 C 116.734375 105.75 148.976562 88.921875 163.242188 51.117188 C 173.363281 52.15625 183.074219 49.558594 187.5 40.921875 C 180.449219 36.855469 171.390625 38.15625 166.171875 40.78125 L 180 1.5 L 126 36 L 108.75 36 L 108.75 1.5 Z M 57 1.5 "/>
</clipPath>
<clipPath id="clip-78">
<path clip-rule="nonzero" d="M 111 38 L 124 38 L 124 51 L 111 51 Z M 111 38 "/>
</clipPath>
<clipPath id="clip-79">
<path clip-rule="nonzero" d="M 57 1.5 L 57 36 L 40.5 36 L 40.5 53.25 L 26.6875 53.25 C 26.625 53.75 26.578125 54.25 26.53125 54.75 C 25.667969 64.148438 27.308594 72.816406 31.078125 80.226562 L 32.34375 82.5 C 33.101562 83.863281 33.988281 85.140625 34.921875 86.390625 C 35.855469 87.636719 36.1875 88.328125 36.773438 89.15625 C 46.738281 100.359375 61.597656 105.75 78.75 105.75 C 116.734375 105.75 148.976562 88.921875 163.242188 51.117188 C 173.363281 52.15625 183.074219 49.558594 187.5 40.921875 C 180.449219 36.855469 171.390625 38.15625 166.171875 40.78125 L 180 1.5 L 126 36 L 108.75 36 L 108.75 1.5 Z M 57 1.5 "/>
</clipPath>
<clipPath id="clip-80">
<path clip-rule="nonzero" d="M 111 37 L 124 37 L 124 52 L 111 52 Z M 111 37 "/>
</clipPath>
<clipPath id="clip-81">
<path clip-rule="nonzero" d="M 57 1.5 L 57 36 L 40.5 36 L 40.5 53.25 L 26.6875 53.25 C 26.625 53.75 26.578125 54.25 26.53125 54.75 C 25.667969 64.148438 27.308594 72.816406 31.078125 80.226562 L 32.34375 82.5 C 33.101562 83.863281 33.988281 85.140625 34.921875 86.390625 C 35.855469 87.636719 36.1875 88.328125 36.773438 89.15625 C 46.738281 100.359375 61.597656 105.75 78.75 105.75 C 116.734375 105.75 148.976562 88.921875 163.242188 51.117188 C 173.363281 52.15625 183.074219 49.558594 187.5 40.921875 C 180.449219 36.855469 171.390625 38.15625 166.171875 40.78125 L 180 1.5 L 126 36 L 108.75 36 L 108.75 1.5 Z M 57 1.5 "/>
</clipPath>
<clipPath id="clip-82">
<path clip-rule="nonzero" d="M 111 21 L 124 21 L 124 34 L 111 34 Z M 111 21 "/>
</clipPath>
<clipPath id="clip-83">
<path clip-rule="nonzero" d="M 57 1.5 L 57 36 L 40.5 36 L 40.5 53.25 L 26.6875 53.25 C 26.625 53.75 26.578125 54.25 26.53125 54.75 C 25.667969 64.148438 27.308594 72.816406 31.078125 80.226562 L 32.34375 82.5 C 33.101562 83.863281 33.988281 85.140625 34.921875 86.390625 C 35.855469 87.636719 36.1875 88.328125 36.773438 89.15625 C 46.738281 100.359375 61.597656 105.75 78.75 105.75 C 116.734375 105.75 148.976562 88.921875 163.242188 51.117188 C 173.363281 52.15625 183.074219 49.558594 187.5 40.921875 C 180.449219 36.855469 171.390625 38.15625 166.171875 40.78125 L 180 1.5 L 126 36 L 108.75 36 L 108.75 1.5 Z M 57 1.5 "/>
</clipPath>
<clipPath id="clip-84">
<path clip-rule="nonzero" d="M 111 20 L 124 20 L 124 35 L 111 35 Z M 111 20 "/>
</clipPath>
<clipPath id="clip-85">
<path clip-rule="nonzero" d="M 57 1.5 L 57 36 L 40.5 36 L 40.5 53.25 L 26.6875 53.25 C 26.625 53.75 26.578125 54.25 26.53125 54.75 C 25.667969 64.148438 27.308594 72.816406 31.078125 80.226562 L 32.34375 82.5 C 33.101562 83.863281 33.988281 85.140625 34.921875 86.390625 C 35.855469 87.636719 36.1875 88.328125 36.773438 89.15625 C 46.738281 100.359375 61.597656 105.75 78.75 105.75 C 116.734375 105.75 148.976562 88.921875 163.242188 51.117188 C 173.363281 52.15625 183.074219 49.558594 187.5 40.921875 C 180.449219 36.855469 171.390625 38.15625 166.171875 40.78125 L 180 1.5 L 126 36 L 108.75 36 L 108.75 1.5 Z M 57 1.5 "/>
</clipPath>
<clipPath id="clip-86">
<path clip-rule="nonzero" d="M 26 21 L 188 21 L 188 106 L 26 106 Z M 26 21 "/>
</clipPath>
<clipPath id="clip-87">
<path clip-rule="nonzero" d="M 57 1.5 L 57 36 L 40.5 36 L 40.5 53.25 L 26.6875 53.25 C 26.625 53.75 26.578125 54.25 26.53125 54.75 C 25.667969 64.148438 27.308594 72.816406 31.078125 80.226562 L 32.34375 82.5 C 33.101562 83.863281 33.988281 85.140625 34.921875 86.390625 C 35.855469 87.636719 36.1875 88.328125 36.773438 89.15625 C 46.738281 100.359375 61.597656 105.75 78.75 105.75 C 116.734375 105.75 148.976562 88.921875 163.242188 51.117188 C 173.363281 52.15625 183.074219 49.558594 187.5 40.921875 C 180.449219 36.855469 171.390625 38.15625 166.171875 40.78125 L 180 1.5 L 126 36 L 108.75 36 L 108.75 1.5 Z M 57 1.5 "/>
</clipPath>
<clipPath id="clip-88">
<path clip-rule="nonzero" d="M 26 1 L 188 1 L 188 106 L 26 106 Z M 26 1 "/>
</clipPath>
<clipPath id="clip-89">
<path clip-rule="nonzero" d="M 57 1.5 L 57 36 L 40.5 36 L 40.5 53.25 L 26.6875 53.25 C 26.625 53.75 26.578125 54.25 26.53125 54.75 C 25.667969 64.148438 27.308594 72.816406 31.078125 80.226562 L 32.34375 82.5 C 33.101562 83.863281 33.988281 85.140625 34.921875 86.390625 C 35.855469 87.636719 36.1875 88.328125 36.773438 89.15625 C 46.738281 100.359375 61.597656 105.75 78.75 105.75 C 116.734375 105.75 148.976562 88.921875 163.242188 51.117188 C 173.363281 52.15625 183.074219 49.558594 187.5 40.921875 C 180.449219 36.855469 171.390625 38.15625 166.171875 40.78125 L 180 1.5 L 126 36 L 108.75 36 L 108.75 1.5 Z M 57 1.5 "/>
</clipPath>
<clipPath id="clip-90">
<path clip-rule="nonzero" d="M 0 65 L 162 65 L 162 105 L 0 105 Z M 0 65 "/>
</clipPath>
<clipPath id="clip-91">
<path clip-rule="nonzero" d="M 31 0.5 L 31 35 L 14.5 35 L 14.5 52.25 L 0.6875 52.25 C 0.625 52.75 0.578125 53.25 0.53125 53.75 C -0.332031 63.148438 1.308594 71.816406 5.078125 79.226562 L 6.34375 81.5 C 7.101562 82.863281 7.988281 84.140625 8.921875 85.390625 C 9.855469 86.636719 10.1875 87.328125 10.773438 88.15625 C 20.738281 99.359375 35.597656 104.75 52.75 104.75 C 90.734375 104.75 122.976562 87.921875 137.242188 50.117188 C 147.363281 51.15625 157.074219 48.558594 161.5 39.921875 C 154.449219 35.855469 145.390625 37.15625 140.171875 39.78125 L 154 0.5 L 100 35 L 82.75 35 L 82.75 0.5 Z M 31 0.5 "/>
</clipPath>
<clipPath id="clip-92">
<rect x="0" y="0" width="162" height="105"/>
</clipPath>
<g id="source-5" clip-path="url(#clip-92)">
<g clip-path="url(#clip-90)">
<g clip-path="url(#clip-91)">
<path fill-rule="nonzero" fill="rgb(0%, 0%, 0%)" fill-opacity="0.17" d="M -0.5 65.75 L -0.5 108.5 L 162.25 108.5 L 162.25 65.75 "/>
</g>
</g>
</g>
<clipPath id="clip-93">
<path clip-rule="nonzero" d="M 33 87 L 84 87 L 84 106 L 33 106 Z M 33 87 "/>
</clipPath>
<clipPath id="clip-94">
<path clip-rule="nonzero" d="M 57 1.5 L 57 36 L 40.5 36 L 40.5 53.25 L 26.6875 53.25 C 26.625 53.75 26.578125 54.25 26.53125 54.75 C 25.667969 64.148438 27.308594 72.816406 31.078125 80.226562 L 32.34375 82.5 C 33.101562 83.863281 33.988281 85.140625 34.921875 86.390625 C 35.855469 87.636719 36.1875 88.328125 36.773438 89.15625 C 46.738281 100.359375 61.597656 105.75 78.75 105.75 C 116.734375 105.75 148.976562 88.921875 163.242188 51.117188 C 173.363281 52.15625 183.074219 49.558594 187.5 40.921875 C 180.449219 36.855469 171.390625 38.15625 166.171875 40.78125 L 180 1.5 L 126 36 L 108.75 36 L 108.75 1.5 Z M 57 1.5 "/>
</clipPath>
<clipPath id="clip-95">
<path clip-rule="nonzero" d="M 26 1 L 188 1 L 188 106 L 26 106 Z M 26 1 "/>
</clipPath>
<clipPath id="clip-96">
<path clip-rule="nonzero" d="M 57 1.5 L 57 36 L 40.5 36 L 40.5 53.25 L 26.6875 53.25 C 26.625 53.75 26.578125 54.25 26.53125 54.75 C 25.667969 64.148438 27.308594 72.816406 31.078125 80.226562 L 32.34375 82.5 C 33.101562 83.863281 33.988281 85.140625 34.921875 86.390625 C 35.855469 87.636719 36.1875 88.328125 36.773438 89.15625 C 46.738281 100.359375 61.597656 105.75 78.75 105.75 C 116.734375 105.75 148.976562 88.921875 163.242188 51.117188 C 173.363281 52.15625 183.074219 49.558594 187.5 40.921875 C 180.449219 36.855469 171.390625 38.15625 166.171875 40.78125 L 180 1.5 L 126 36 L 108.75 36 L 108.75 1.5 Z M 57 1.5 "/>
</clipPath>
<clipPath id="clip-97">
<path clip-rule="nonzero" d="M 0 36 L 162 36 L 162 105 L 0 105 Z M 0 36 "/>
</clipPath>
<clipPath id="clip-98">
<path clip-rule="nonzero" d="M 31 0.5 L 31 35 L 14.5 35 L 14.5 52.25 L 0.6875 52.25 C 0.625 52.75 0.578125 53.25 0.53125 53.75 C -0.332031 63.148438 1.308594 71.816406 5.078125 79.226562 L 6.34375 81.5 C 7.101562 82.863281 7.988281 84.140625 8.921875 85.390625 C 9.855469 86.636719 10.1875 87.328125 10.773438 88.15625 C 20.738281 99.359375 35.597656 104.75 52.75 104.75 C 90.734375 104.75 122.976562 87.921875 137.242188 50.117188 C 147.363281 51.15625 157.074219 48.558594 161.5 39.921875 C 154.449219 35.855469 145.390625 37.15625 140.171875 39.78125 L 154 0.5 L 100 35 L 82.75 35 L 82.75 0.5 Z M 31 0.5 "/>
</clipPath>
<clipPath id="clip-99">
<rect x="0" y="0" width="162" height="105"/>
</clipPath>
<g id="source-8" clip-path="url(#clip-99)">
<g clip-path="url(#clip-97)">
<g clip-path="url(#clip-98)">
<path fill-rule="nonzero" fill="rgb(0%, 0%, 0%)" fill-opacity="0.085" d="M 140.875 39.453125 L 140.875 39.476562 C 125.230469 59.644531 102.789062 77.261719 78.695312 86.515625 C 57.203125 94.769531 38.464844 94.8125 25.539062 88.179688 C 24.148438 87.394531 22.78125 86.519531 21.414062 85.695312 C 11.9375 79.070312 6.597656 68.113281 7.046875 53.679688 L -0.5 53.679688 L -0.5 108.5 L 162.25 108.5 L 162.25 36.5 L 143.5 36.5 Z M 140.875 39.453125 "/>
</g>
</g>
</g>
</defs>
<g clip-path="url(#clip-0)">
<path fill="none" stroke-width="7.875" stroke-linecap="round" stroke-linejoin="round" stroke="rgb(22.3526%, 30.195618%, 32.940674%)" stroke-opacity="1" stroke-miterlimit="4" d="M 350.863281 84.929688 L 350.832031 65.761719 L 350.738281 31.519531 M 370.128906 46.277344 L 350.832031 65.761719 L 370.222656 84.996094 M 240.964844 66.015625 C 241.058594 61.90625 239.863281 57.707031 237.441406 54.304688 C 233.953125 49.40625 228.308594 46.0625 222.113281 45.992188 C 221.699219 45.992188 221.292969 45.992188 220.875 46.023438 C 218.425781 46.175781 216.054688 46.515625 213.957031 47.386719 C 200.15625 53.128906 197.710938 72.292969 209.355469 80.964844 C 219.4375 88.472656 234.105469 85.40625 239.1875 73.949219 C 240.261719 71.527344 240.964844 68.476562 240.964844 66.015625 L 240.964844 31.359375 M 334.078125 48.277344 C 331.21875 46.429688 327.886719 45.761719 324.589844 45.769531 C 324.230469 45.769531 323.863281 45.785156 323.542969 45.800781 C 314.007812 46.210938 305.167969 52.949219 305.167969 66.015625 C 305.167969 81.464844 321.734375 89.804688 334.109375 82.519531 M 389.710938 80.835938 C 399.460938 72.484375 419.003906 55.734375 419.003906 55.734375 C 419.003906 55.734375 418.289062 54.386719 417.828125 53.765625 C 413.886719 48.472656 407.863281 45.832031 401.515625 45.832031 C 385.835938 45.832031 374.082031 66.109375 389.710938 80.835938 C 390.792969 81.855469 392.28125 82.65625 393.929688 83.34375 C 399.667969 85.734375 407.519531 85.539062 411.765625 82.390625 M 273.015625 45.894531 C 272.570312 45.902344 272.128906 45.949219 271.683594 45.960938 C 259.792969 46.175781 251.21875 58.527344 253.816406 69.984375 C 256.347656 81.144531 268.539062 87.753906 279.078125 84.105469 C 291.34375 80.886719 296.347656 65.4375 289.613281 55.003906 C 285.929688 49.296875 279.683594 45.769531 273.015625 45.894531 Z M 453.558594 46.277344 C 448.746094 46.289062 444.054688 47.976562 440.578125 51.226562 C 435.097656 55.75 433.910156 61.460938 433.980469 68.683594 L 434.136719 85.089844 "/>
</g>
<g clip-path="url(#clip-1)">
<path fill-rule="nonzero" fill="rgb(22.3526%, 30.195618%, 32.940674%)" fill-opacity="1" d="M 110.617188 34.300781 L 127.765625 34.300781 L 127.765625 51.828125 L 136.4375 51.828125 C 140.441406 51.828125 144.558594 51.117188 148.351562 49.832031 C 150.214844 49.199219 152.308594 48.320312 154.144531 47.214844 C 151.722656 44.054688 150.488281 40.0625 150.125 36.128906 C 149.628906 30.777344 150.710938 23.8125 154.332031 19.625 L 156.132812 17.539062 L 158.28125 19.265625 C 163.691406 23.613281 168.238281 29.683594 169.039062 36.605469 C 175.550781 34.691406 183.199219 35.144531 188.9375 38.457031 L 191.292969 39.816406 L 190.054688 42.234375 C 185.199219 51.710938 175.050781 54.644531 165.128906 54.125 C 150.28125 91.105469 117.953125 108.613281 78.761719 108.613281 C 58.511719 108.613281 39.933594 101.046875 29.351562 83.078125 C 28.734375 81.964844 28.203125 80.796875 27.640625 79.652344 C 24.0625 71.742188 22.875 63.078125 23.679688 54.421875 L 23.921875 51.832031 L 38.585938 51.832031 L 38.585938 34.300781 L 55.738281 34.300781 L 55.738281 17.148438 L 90.035156 17.148438 L 90.035156 0 L 110.617188 0 L 110.617188 34.300781 "/>
</g>
<g clip-path="url(#clip-2)">
<g clip-path="url(#clip-3)">
<path fill-rule="nonzero" fill="rgb(12.548828%, 76.077271%, 93.72406%)" fill-opacity="1" d="M 92.894531 2.859375 L 107.757812 2.859375 L 107.757812 17.722656 L 92.894531 17.722656 Z M 92.894531 2.859375 "/>
</g>
</g>
<g clip-path="url(#clip-4)">
<g clip-path="url(#clip-5)">
<path fill-rule="nonzero" fill="rgb(0%, 0%, 0%)" fill-opacity="1" d="M 94.71875 16.484375 L 94.71875 4.097656 M 96.949219 16.484375 L 96.949219 4.097656 M 99.199219 16.484375 L 99.199219 4.097656 M 101.453125 16.484375 L 101.453125 4.097656 M 103.703125 16.484375 L 103.703125 4.097656 M 105.933594 16.484375 L 105.933594 4.097656 "/>
</g>
</g>
<g clip-path="url(#clip-6)">
<g clip-path="url(#clip-7)">
<path fill="none" stroke-width="1.17" stroke-linecap="butt" stroke-linejoin="miter" stroke="rgb(22.3526%, 30.195618%, 32.940674%)" stroke-opacity="1" stroke-miterlimit="4" d="M 94.71875 16.484375 L 94.71875 4.097656 M 96.949219 16.484375 L 96.949219 4.097656 M 99.199219 16.484375 L 99.199219 4.097656 M 101.453125 16.484375 L 101.453125 4.097656 M 103.703125 16.484375 L 103.703125 4.097656 M 105.933594 16.484375 L 105.933594 4.097656 "/>
</g>
</g>
<g clip-path="url(#clip-8)">
<g clip-path="url(#clip-9)">
<path fill-rule="nonzero" fill="rgb(0%, 67.449951%, 82.743835%)" fill-opacity="1" d="M 110.042969 2.859375 L 124.90625 2.859375 L 124.90625 17.71875 L 110.042969 17.71875 Z M 110.042969 2.859375 "/>
</g>
</g>
<g clip-path="url(#clip-10)">
<g clip-path="url(#clip-11)">
<path fill-rule="nonzero" fill="rgb(0%, 0%, 0%)" fill-opacity="1" d="M 111.867188 4.097656 L 111.867188 16.484375 M 114.097656 4.097656 L 114.097656 16.484375 M 116.347656 4.097656 L 116.347656 16.484375 M 118.601562 4.097656 L 118.601562 16.484375 M 120.855469 4.097656 L 120.855469 16.484375 M 123.082031 4.097656 L 123.082031 16.484375 "/>
</g>
</g>
<g clip-path="url(#clip-12)">
<g clip-path="url(#clip-13)">
<path fill="none" stroke-width="1.17" stroke-linecap="butt" stroke-linejoin="miter" stroke="rgb(22.3526%, 30.195618%, 32.940674%)" stroke-opacity="1" stroke-miterlimit="4" d="M 111.867188 -4.097656 L 111.867188 -16.484375 M 114.097656 -4.097656 L 114.097656 -16.484375 M 116.347656 -4.097656 L 116.347656 -16.484375 M 118.601562 -4.097656 L 118.601562 -16.484375 M 120.855469 -4.097656 L 120.855469 -16.484375 M 123.082031 -4.097656 L 123.082031 -16.484375 " transform="matrix(1, 0, 0, -1, 0, 0)"/>
</g>
</g>
<g clip-path="url(#clip-14)">
<g clip-path="url(#clip-15)">
<path fill-rule="nonzero" fill="rgb(0%, 67.449951%, 82.743835%)" fill-opacity="1" d="M 24.296875 20.007812 L 39.160156 20.007812 L 39.160156 34.871094 L 24.296875 34.871094 Z M 24.296875 20.007812 "/>
</g>
</g>
<g clip-path="url(#clip-16)">
<g clip-path="url(#clip-17)">
<path fill-rule="nonzero" fill="rgb(12.548828%, 76.077271%, 93.72406%)" fill-opacity="1" d="M 24.296875 37.15625 L 39.160156 37.15625 L 39.160156 52.019531 L 24.296875 52.019531 Z M 24.296875 37.15625 "/>
</g>
</g>
<g clip-path="url(#clip-18)">
<g clip-path="url(#clip-19)">
<path fill-rule="nonzero" fill="rgb(0%, 0%, 0%)" fill-opacity="1" d="M 26.121094 33.632812 L 26.121094 21.246094 M 28.351562 33.632812 L 28.351562 21.246094 M 30.601562 33.632812 L 30.601562 21.246094 M 32.855469 33.632812 L 32.855469 21.246094 M 35.105469 33.632812 L 35.105469 21.246094 M 37.335938 33.632812 L 37.335938 21.246094 "/>
</g>
</g>
<g clip-path="url(#clip-20)">
<g clip-path="url(#clip-21)">
<path fill="none" stroke-width="1.17" stroke-linecap="butt" stroke-linejoin="miter" stroke="rgb(22.3526%, 30.195618%, 32.940674%)" stroke-opacity="1" stroke-miterlimit="4" d="M 26.121094 33.632812 L 26.121094 21.246094 M 28.351562 33.632812 L 28.351562 21.246094 M 30.601562 33.632812 L 30.601562 21.246094 M 32.855469 33.632812 L 32.855469 21.246094 M 35.105469 33.632812 L 35.105469 21.246094 M 37.335938 33.632812 L 37.335938 21.246094 "/>
</g>
</g>
<g clip-path="url(#clip-22)">
<g clip-path="url(#clip-23)">
<path fill-rule="nonzero" fill="rgb(0%, 0%, 0%)" fill-opacity="1" d="M 26.121094 50.78125 L 26.121094 38.394531 M 28.351562 50.78125 L 28.351562 38.394531 M 30.601562 50.78125 L 30.601562 38.394531 M 32.855469 50.78125 L 32.855469 38.394531 M 35.105469 50.78125 L 35.105469 38.394531 M 37.335938 50.78125 L 37.335938 38.394531 "/>
</g>
</g>
<g clip-path="url(#clip-24)">
<g clip-path="url(#clip-25)">
<path fill="none" stroke-width="1.17" stroke-linecap="butt" stroke-linejoin="miter" stroke="rgb(22.3526%, 30.195618%, 32.940674%)" stroke-opacity="1" stroke-miterlimit="4" d="M 26.121094 50.78125 L 26.121094 38.394531 M 28.351562 50.78125 L 28.351562 38.394531 M 30.601562 50.78125 L 30.601562 38.394531 M 32.855469 50.78125 L 32.855469 38.394531 M 35.105469 50.78125 L 35.105469 38.394531 M 37.335938 50.78125 L 37.335938 38.394531 "/>
</g>
</g>
<g clip-path="url(#clip-26)">
<g clip-path="url(#clip-27)">
<path fill-rule="nonzero" fill="rgb(0%, 67.449951%, 82.743835%)" fill-opacity="1" d="M 41.445312 37.15625 L 56.308594 37.15625 L 56.308594 52.019531 L 41.445312 52.019531 Z M 41.445312 37.15625 "/>
</g>
</g>
<g clip-path="url(#clip-28)">
<g clip-path="url(#clip-29)">
<path fill-rule="nonzero" fill="rgb(12.548828%, 76.077271%, 93.72406%)" fill-opacity="1" d="M 41.445312 20.007812 L 56.308594 20.007812 L 56.308594 34.871094 L 41.445312 34.871094 Z M 41.445312 20.007812 "/>
</g>
</g>
<g clip-path="url(#clip-30)">
<g clip-path="url(#clip-31)">
<path fill-rule="nonzero" fill="rgb(0%, 0%, 0%)" fill-opacity="1" d="M 43.269531 38.394531 L 43.269531 50.78125 M 45.5 38.394531 L 45.5 50.78125 M 47.75 38.394531 L 47.75 50.78125 M 50.003906 38.394531 L 50.003906 50.78125 M 52.253906 38.394531 L 52.253906 50.78125 M 54.484375 38.394531 L 54.484375 50.78125 "/>
</g>
</g>
<g clip-path="url(#clip-32)">
<g clip-path="url(#clip-33)">
<path fill="none" stroke-width="1.17" stroke-linecap="butt" stroke-linejoin="miter" stroke="rgb(22.3526%, 30.195618%, 32.940674%)" stroke-opacity="1" stroke-miterlimit="4" d="M 43.269531 -38.394531 L 43.269531 -50.78125 M 45.5 -38.394531 L 45.5 -50.78125 M 47.75 -38.394531 L 47.75 -50.78125 M 50.003906 -38.394531 L 50.003906 -50.78125 M 52.253906 -38.394531 L 52.253906 -50.78125 M 54.484375 -38.394531 L 54.484375 -50.78125 " transform="matrix(1, 0, 0, -1, 0, 0)"/>
</g>
</g>
<g clip-path="url(#clip-34)">
<g clip-path="url(#clip-35)">
<path fill-rule="nonzero" fill="rgb(0%, 0%, 0%)" fill-opacity="1" d="M 43.269531 21.246094 L 43.269531 33.632812 M 45.5 21.246094 L 45.5 33.632812 M 47.75 21.246094 L 47.75 33.632812 M 50.003906 21.246094 L 50.003906 33.632812 M 52.253906 21.246094 L 52.253906 33.632812 M 54.484375 21.246094 L 54.484375 33.632812 "/>
</g>
</g>
<g clip-path="url(#clip-36)">
<g clip-path="url(#clip-37)">
<path fill="none" stroke-width="1.17" stroke-linecap="butt" stroke-linejoin="miter" stroke="rgb(22.3526%, 30.195618%, 32.940674%)" stroke-opacity="1" stroke-miterlimit="4" d="M 43.269531 -21.246094 L 43.269531 -33.632812 M 45.5 -21.246094 L 45.5 -33.632812 M 47.75 -21.246094 L 47.75 -33.632812 M 50.003906 -21.246094 L 50.003906 -33.632812 M 52.253906 -21.246094 L 52.253906 -33.632812 M 54.484375 -21.246094 L 54.484375 -33.632812 " transform="matrix(1, 0, 0, -1, 0, 0)"/>
</g>
</g>
<g clip-path="url(#clip-38)">
<g clip-path="url(#clip-39)">
<path fill-rule="nonzero" fill="rgb(0%, 67.449951%, 82.743835%)" fill-opacity="1" d="M 58.59375 20.007812 L 73.457031 20.007812 L 73.457031 34.871094 L 58.59375 34.871094 Z M 58.59375 20.007812 "/>
</g>
</g>
<g clip-path="url(#clip-40)">
<g clip-path="url(#clip-41)">
<path fill-rule="nonzero" fill="rgb(12.548828%, 76.077271%, 93.72406%)" fill-opacity="1" d="M 58.59375 37.15625 L 73.457031 37.15625 L 73.457031 52.019531 L 58.59375 52.019531 Z M 58.59375 37.15625 "/>
</g>
</g>
<g clip-path="url(#clip-42)">
<g clip-path="url(#clip-43)">
<path fill-rule="nonzero" fill="rgb(0%, 0%, 0%)" fill-opacity="1" d="M 60.421875 33.632812 L 60.421875 21.246094 M 62.648438 33.632812 L 62.648438 21.246094 M 64.902344 33.632812 L 64.902344 21.246094 M 67.152344 33.632812 L 67.152344 21.246094 M 69.40625 33.632812 L 69.40625 21.246094 M 71.632812 33.632812 L 71.632812 21.246094 "/>
</g>
</g>
<g clip-path="url(#clip-44)">
<g clip-path="url(#clip-45)">
<path fill="none" stroke-width="1.17" stroke-linecap="butt" stroke-linejoin="miter" stroke="rgb(22.3526%, 30.195618%, 32.940674%)" stroke-opacity="1" stroke-miterlimit="4" d="M 60.421875 33.632812 L 60.421875 21.246094 M 62.648438 33.632812 L 62.648438 21.246094 M 64.902344 33.632812 L 64.902344 21.246094 M 67.152344 33.632812 L 67.152344 21.246094 M 69.40625 33.632812 L 69.40625 21.246094 M 71.632812 33.632812 L 71.632812 21.246094 "/>
</g>
</g>
<g clip-path="url(#clip-46)">
<g clip-path="url(#clip-47)">
<path fill-rule="nonzero" fill="rgb(0%, 0%, 0%)" fill-opacity="1" d="M 60.421875 50.78125 L 60.421875 38.394531 M 62.648438 50.78125 L 62.648438 38.394531 M 64.902344 50.78125 L 64.902344 38.394531 M 67.152344 50.78125 L 67.152344 38.394531 M 69.40625 50.78125 L 69.40625 38.394531 M 71.632812 50.78125 L 71.632812 38.394531 "/>
</g>
</g>
<g clip-path="url(#clip-48)">
<g clip-path="url(#clip-49)">
<path fill="none" stroke-width="1.17" stroke-linecap="butt" stroke-linejoin="miter" stroke="rgb(22.3526%, 30.195618%, 32.940674%)" stroke-opacity="1" stroke-miterlimit="4" d="M 60.421875 50.78125 L 60.421875 38.394531 M 62.648438 50.78125 L 62.648438 38.394531 M 64.902344 50.78125 L 64.902344 38.394531 M 67.152344 50.78125 L 67.152344 38.394531 M 69.40625 50.78125 L 69.40625 38.394531 M 71.632812 50.78125 L 71.632812 38.394531 "/>
</g>
</g>
<g clip-path="url(#clip-50)">
<g clip-path="url(#clip-51)">
<path fill-rule="nonzero" fill="rgb(0%, 67.449951%, 82.743835%)" fill-opacity="1" d="M 75.746094 37.15625 L 90.609375 37.15625 L 90.609375 52.019531 L 75.746094 52.019531 Z M 75.746094 37.15625 "/>
</g>
</g>
<g clip-path="url(#clip-52)">
<g clip-path="url(#clip-53)">
<path fill-rule="nonzero" fill="rgb(12.548828%, 76.077271%, 93.72406%)" fill-opacity="1" d="M 75.746094 20.007812 L 90.609375 20.007812 L 90.609375 34.871094 L 75.746094 34.871094 Z M 75.746094 20.007812 "/>
</g>
</g>
<g clip-path="url(#clip-54)">
<g clip-path="url(#clip-55)">
<path fill-rule="nonzero" fill="rgb(0%, 0%, 0%)" fill-opacity="1" d="M 77.570312 38.394531 L 77.570312 50.78125 M 79.796875 38.394531 L 79.796875 50.78125 M 82.050781 38.394531 L 82.050781 50.78125 M 84.300781 38.394531 L 84.300781 50.78125 M 86.554688 38.394531 L 86.554688 50.78125 M 88.785156 38.394531 L 88.785156 50.78125 "/>
</g>
</g>
<g clip-path="url(#clip-56)">
<g clip-path="url(#clip-57)">
<path fill="none" stroke-width="1.17" stroke-linecap="butt" stroke-linejoin="miter" stroke="rgb(22.3526%, 30.195618%, 32.940674%)" stroke-opacity="1" stroke-miterlimit="4" d="M 77.570312 -38.394531 L 77.570312 -50.78125 M 79.796875 -38.394531 L 79.796875 -50.78125 M 82.050781 -38.394531 L 82.050781 -50.78125 M 84.300781 -38.394531 L 84.300781 -50.78125 M 86.554688 -38.394531 L 86.554688 -50.78125 M 88.785156 -38.394531 L 88.785156 -50.78125 " transform="matrix(1, 0, 0, -1, 0, 0)"/>
</g>
</g>
<g clip-path="url(#clip-58)">
<g clip-path="url(#clip-59)">
<path fill-rule="nonzero" fill="rgb(0%, 0%, 0%)" fill-opacity="1" d="M 77.570312 21.246094 L 77.570312 33.632812 M 79.796875 21.246094 L 79.796875 33.632812 M 82.050781 21.246094 L 82.050781 33.632812 M 84.300781 21.246094 L 84.300781 33.632812 M 86.554688 21.246094 L 86.554688 33.632812 M 88.785156 21.246094 L 88.785156 33.632812 "/>
</g>
</g>
<g clip-path="url(#clip-60)">
<g clip-path="url(#clip-61)">
<path fill="none" stroke-width="1.17" stroke-linecap="butt" stroke-linejoin="miter" stroke="rgb(22.3526%, 30.195618%, 32.940674%)" stroke-opacity="1" stroke-miterlimit="4" d="M 77.570312 -21.246094 L 77.570312 -33.632812 M 79.796875 -21.246094 L 79.796875 -33.632812 M 82.050781 -21.246094 L 82.050781 -33.632812 M 84.300781 -21.246094 L 84.300781 -33.632812 M 86.554688 -21.246094 L 86.554688 -33.632812 M 88.785156 -21.246094 L 88.785156 -33.632812 " transform="matrix(1, 0, 0, -1, 0, 0)"/>
</g>
</g>
<g clip-path="url(#clip-62)">
<g clip-path="url(#clip-63)">
<path fill-rule="nonzero" fill="rgb(0%, 67.449951%, 82.743835%)" fill-opacity="1" d="M 92.894531 20.007812 L 107.757812 20.007812 L 107.757812 34.871094 L 92.894531 34.871094 Z M 92.894531 20.007812 "/>
</g>
</g>
<g clip-path="url(#clip-64)">
<g clip-path="url(#clip-65)">
<path fill-rule="nonzero" fill="rgb(12.548828%, 76.077271%, 93.72406%)" fill-opacity="1" d="M 92.894531 37.15625 L 107.757812 37.15625 L 107.757812 52.019531 L 92.894531 52.019531 Z M 92.894531 37.15625 "/>
</g>
</g>
<g clip-path="url(#clip-66)">
<g clip-path="url(#clip-67)">
<path fill-rule="nonzero" fill="rgb(0%, 0%, 0%)" fill-opacity="1" d="M 94.71875 33.632812 L 94.71875 21.246094 M 96.949219 33.632812 L 96.949219 21.246094 M 99.199219 33.632812 L 99.199219 21.246094 M 101.453125 33.632812 L 101.453125 21.246094 M 103.703125 33.632812 L 103.703125 21.246094 M 105.933594 33.632812 L 105.933594 21.246094 "/>
</g>
</g>
<g clip-path="url(#clip-68)">
<g clip-path="url(#clip-69)">
<path fill="none" stroke-width="1.17" stroke-linecap="butt" stroke-linejoin="miter" stroke="rgb(22.3526%, 30.195618%, 32.940674%)" stroke-opacity="1" stroke-miterlimit="4" d="M 94.71875 33.632812 L 94.71875 21.246094 M 96.949219 33.632812 L 96.949219 21.246094 M 99.199219 33.632812 L 99.199219 21.246094 M 101.453125 33.632812 L 101.453125 21.246094 M 103.703125 33.632812 L 103.703125 21.246094 M 105.933594 33.632812 L 105.933594 21.246094 "/>
</g>
</g>
<g clip-path="url(#clip-70)">
<g clip-path="url(#clip-71)">
<path fill-rule="nonzero" fill="rgb(0%, 0%, 0%)" fill-opacity="1" d="M 94.71875 50.78125 L 94.71875 38.394531 M 96.949219 50.78125 L 96.949219 38.394531 M 99.199219 50.78125 L 99.199219 38.394531 M 101.453125 50.78125 L 101.453125 38.394531 M 103.703125 50.78125 L 103.703125 38.394531 M 105.933594 50.78125 L 105.933594 38.394531 "/>
</g>
</g>
<g clip-path="url(#clip-72)">
<g clip-path="url(#clip-73)">
<path fill="none" stroke-width="1.17" stroke-linecap="butt" stroke-linejoin="miter" stroke="rgb(22.3526%, 30.195618%, 32.940674%)" stroke-opacity="1" stroke-miterlimit="4" d="M 94.71875 50.78125 L 94.71875 38.394531 M 96.949219 50.78125 L 96.949219 38.394531 M 99.199219 50.78125 L 99.199219 38.394531 M 101.453125 50.78125 L 101.453125 38.394531 M 103.703125 50.78125 L 103.703125 38.394531 M 105.933594 50.78125 L 105.933594 38.394531 "/>
</g>
</g>
<g clip-path="url(#clip-74)">
<g clip-path="url(#clip-75)">
<path fill-rule="nonzero" fill="rgb(0%, 67.449951%, 82.743835%)" fill-opacity="1" d="M 110.042969 37.15625 L 124.90625 37.15625 L 124.90625 52.019531 L 110.042969 52.019531 Z M 110.042969 37.15625 "/>
</g>
</g>
<g clip-path="url(#clip-76)">
<g clip-path="url(#clip-77)">
<path fill-rule="nonzero" fill="rgb(12.548828%, 76.077271%, 93.72406%)" fill-opacity="1" d="M 110.042969 20.007812 L 124.90625 20.007812 L 124.90625 34.871094 L 110.042969 34.871094 Z M 110.042969 20.007812 "/>
</g>
</g>
<g clip-path="url(#clip-78)">
<g clip-path="url(#clip-79)">
<path fill-rule="nonzero" fill="rgb(0%, 0%, 0%)" fill-opacity="1" d="M 111.867188 38.394531 L 111.867188 50.78125 M 114.097656 38.394531 L 114.097656 50.78125 M 116.347656 38.394531 L 116.347656 50.78125 M 118.601562 38.394531 L 118.601562 50.78125 M 120.855469 38.394531 L 120.855469 50.78125 M 123.082031 38.394531 L 123.082031 50.78125 "/>
</g>
</g>
<g clip-path="url(#clip-80)">
<g clip-path="url(#clip-81)">
<path fill="none" stroke-width="1.17" stroke-linecap="butt" stroke-linejoin="miter" stroke="rgb(22.3526%, 30.195618%, 32.940674%)" stroke-opacity="1" stroke-miterlimit="4" d="M 111.867188 -38.394531 L 111.867188 -50.78125 M 114.097656 -38.394531 L 114.097656 -50.78125 M 116.347656 -38.394531 L 116.347656 -50.78125 M 118.601562 -38.394531 L 118.601562 -50.78125 M 120.855469 -38.394531 L 120.855469 -50.78125 M 123.082031 -38.394531 L 123.082031 -50.78125 " transform="matrix(1, 0, 0, -1, 0, 0)"/>
</g>
</g>
<g clip-path="url(#clip-82)">
<g clip-path="url(#clip-83)">
<path fill-rule="nonzero" fill="rgb(0%, 0%, 0%)" fill-opacity="1" d="M 111.867188 21.246094 L 111.867188 33.632812 M 114.097656 21.246094 L 114.097656 33.632812 M 116.347656 21.246094 L 116.347656 33.632812 M 118.601562 21.246094 L 118.601562 33.632812 M 120.855469 21.246094 L 120.855469 33.632812 M 123.082031 21.246094 L 123.082031 33.632812 "/>
</g>
</g>
<g clip-path="url(#clip-84)">
<g clip-path="url(#clip-85)">
<path fill="none" stroke-width="1.17" stroke-linecap="butt" stroke-linejoin="miter" stroke="rgb(22.3526%, 30.195618%, 32.940674%)" stroke-opacity="1" stroke-miterlimit="4" d="M 111.867188 -21.246094 L 111.867188 -33.632812 M 114.097656 -21.246094 L 114.097656 -33.632812 M 116.347656 -21.246094 L 116.347656 -33.632812 M 118.601562 -21.246094 L 118.601562 -33.632812 M 120.855469 -21.246094 L 120.855469 -33.632812 M 123.082031 -21.246094 L 123.082031 -33.632812 " transform="matrix(1, 0, 0, -1, 0, 0)"/>
</g>
</g>
<g clip-path="url(#clip-86)">
<g clip-path="url(#clip-87)">
<path fill-rule="nonzero" fill="rgb(9.01947%, 70.979309%, 92.155457%)" fill-opacity="1" d="M 166.175781 40.785156 C 167.328125 31.847656 160.640625 24.828125 156.492188 21.496094 C 151.710938 27.023438 150.96875 41.503906 158.46875 47.601562 C 154.285156 51.320312 145.464844 54.6875 136.4375 54.6875 L 25.5 54.6875 C 24.621094 64.113281 25.5 109.5 25.5 109.5 L 188.25 109.5 L 187.511719 40.933594 C 180.460938 36.863281 171.398438 38.160156 166.175781 40.785156 "/>
</g>
</g>
<g clip-path="url(#clip-88)">
<g clip-path="url(#clip-89)">
<use xlink:href="#source-5" transform="matrix(1, 0, 0, 1, 26, 1)"/>
</g>
</g>
<g clip-path="url(#clip-93)">
<g clip-path="url(#clip-94)">
<path fill-rule="nonzero" fill="rgb(83.135986%, 92.939758%, 94.508362%)" fill-opacity="1" d="M 83.429688 105.667969 C 73.273438 100.847656 67.699219 94.296875 64.597656 87.148438 L 33.75 88.5 L 49.5 109.5 L 83.429688 105.667969 "/>
</g>
</g>
<g clip-path="url(#clip-95)">
<g clip-path="url(#clip-96)">
<use xlink:href="#source-8" transform="matrix(1, 0, 0, 1, 26, 1)"/>
</g>
</g>
<path fill="none" stroke-width="2.55" stroke-linecap="round" stroke-linejoin="miter" stroke="rgb(22.3526%, 30.195618%, 32.940674%)" stroke-opacity="1" stroke-miterlimit="4" d="M 34.21875 87.773438 C 44.84375 88.355469 56.179688 88.460938 66.070312 85.359375 "/>
<path fill-rule="nonzero" fill="rgb(83.135986%, 92.939758%, 94.508362%)" fill-opacity="1" d="M 76.628906 80.21875 C 76.628906 82.484375 74.792969 84.320312 72.527344 84.320312 C 70.261719 84.320312 68.425781 82.484375 68.425781 80.21875 C 68.425781 77.957031 70.261719 76.117188 72.527344 76.117188 C 74.792969 76.117188 76.628906 77.957031 76.628906 80.21875 Z M 76.628906 80.21875 "/>
<path fill-rule="nonzero" fill="rgb(22.3526%, 30.195618%, 32.940674%)" fill-opacity="1" d="M 73.589844 77.480469 C 73.234375 77.6875 72.992188 78.074219 72.992188 78.519531 C 72.992188 79.179688 73.527344 79.714844 74.191406 79.714844 C 74.644531 79.714844 75.035156 79.464844 75.242188 79.09375 C 75.382812 79.4375 75.464844 79.820312 75.464844 80.21875 C 75.464844 81.839844 74.148438 83.15625 72.527344 83.15625 C 70.90625 83.15625 69.589844 81.839844 69.589844 80.21875 C 69.589844 78.597656 70.90625 77.28125 72.527344 77.28125 C 72.902344 77.28125 73.261719 77.351562 73.589844 77.480469 Z M 73.589844 77.480469 "/>
<path fill-rule="nonzero" fill="rgb(22.3526%, 30.195618%, 32.940674%)" fill-opacity="1" d="M 0 67.621094 L 190.746094 67.621094 C 186.59375 66.566406 177.605469 65.144531 179.085938 59.703125 C 171.535156 68.441406 153.324219 65.832031 148.726562 61.523438 C 143.609375 68.949219 113.808594 66.125 111.730469 60.34375 C 105.316406 67.871094 85.429688 67.871094 79.015625 60.34375 C 76.933594 66.125 47.136719 68.949219 42.019531 61.523438 C 37.421875 65.832031 19.210938 68.441406 11.660156 59.703125 C 13.140625 65.144531 4.152344 66.566406 0 67.621094 "/>
</svg>
