<?xml version="1.0" encoding="UTF-8"?>
<svg xmlns="http://www.w3.org/2000/svg" xmlns:xlink="http://www.w3.org/1999/xlink" width="248.427pt" height="261.296pt" viewBox="0 0 248.427 261.296">
<defs>
<clipPath id="clip-0">
<path clip-rule="nonzero" d="M 0 0 L 248.425781 0 L 248.425781 261.296875 L 0 261.296875 Z M 0 0 "/>
</clipPath>
</defs>
<g clip-path="url(#clip-0)">
<path fill="none" stroke-width="0.79701" stroke-linecap="butt" stroke-linejoin="miter" stroke="rgb(0%, 0%, 0%)" stroke-opacity="1" stroke-miterlimit="10" d="M -0.0009375 -0.0016875 L -0.934531 -2.349344 C -1.747031 -4.396219 -2.086875 -7.810281 -1.69625 -9.97825 L -2.313437 -6.560281 C -1.922812 -8.724344 -3.387656 -10.599344 -5.582969 -10.747781 L -20.075156 -11.72825 C -22.274375 -11.876688 -22.497031 -12.868875 -20.579062 -13.947 L -14.215781 -17.521219 C -12.297812 -18.599344 -12.25875 -20.411844 -14.129844 -21.572 L -20.004844 -25.204813 C -21.875937 -26.364969 -24.493125 -28.704813 -25.8525 -30.435281 L -32.254844 -38.587625 C -33.614219 -40.322 -36.450156 -41.314188 -38.594687 -40.806375 L -38.520469 -40.822 C -40.665 -40.318094 -42.407187 -41.689188 -42.415 -43.892313 L -42.399375 -40.021219 C -42.407187 -42.220438 -42.399375 -42.220438 -42.375937 -40.021219 L -42.379844 -40.368875 C -42.360312 -38.16575 -44.125937 -36.396219 -46.329062 -36.411844 L -65.8525 -36.548563 C -68.055625 -36.564188 -70.219687 -38.318094 -70.688437 -40.466531 L -70.797812 -40.974344 C -71.266562 -43.122781 -71.899375 -43.099344 -72.211875 -40.923563 L -73.356406 -32.911844 C -73.665 -30.732156 -75.344687 -30.04075 -77.1025 -31.364969 L -80.250937 -33.732156 C -82.00875 -35.056375 -83.926719 -37.845438 -84.532187 -39.958719 L -88.325156 -53.181375 C -88.930625 -55.294656 -87.653281 -56.79075 -85.469687 -56.525125 L -70.848594 -54.724344 C -68.665 -54.454813 -68.586875 -53.669656 -70.672812 -52.966531 L -85.438437 -48.001688 C -87.524375 -47.298563 -87.582969 -47.454813 -85.57125 -48.349344 L -80.915 -50.419656 C -78.903281 -51.314188 -77.6025 -53.79075 -78.00875 -55.954813 L -77.911094 -55.431375 C -78.313437 -57.595438 -77.645469 -57.868875 -76.418906 -56.04075 L -72.051719 -49.556375 C -70.82125 -47.732156 -71.543906 -46.72825 -73.665 -47.314188 L -75.528281 -47.829813 C -77.649375 -48.41575 -78.985312 -50.6345 -78.512656 -52.782938 L -75.270469 -67.532938 C -74.797812 -69.681375 -75.19625 -73.029031 -76.161094 -75.005594 L -78.250937 -79.306375 C -79.215781 -81.286844 -81.778281 -82.900125 -83.981406 -82.911844 L -91.168906 -82.947 C -93.368125 -82.958719 -96.915 -83.236063 -99.090781 -83.564188 L -101.848594 -83.97825 C -104.024375 -84.306375 -105.915 -86.35325 -106.067344 -88.548563 L -106.364219 -92.833719 C -106.516562 -95.029031 -107.04 -95.072 -107.536094 -92.927469 L -107.993125 -90.943094 C -108.485312 -88.798563 -110.668906 -87.005594 -112.868125 -86.935281 L -130.098594 -86.380594 C -132.297812 -86.310281 -132.430625 -85.579813 -130.391562 -84.751688 L -127.13375 -83.419656 C -125.094687 -82.591531 -125.192344 -81.564188 -127.348594 -81.126688 L -142.114219 -78.130594 C -144.270469 -77.693094 -147.676719 -77.993875 -149.7275 -78.802469 L -157.411094 -81.833719 C -159.457969 -82.642313 -159.618125 -82.337625 -157.762656 -81.150125 L -158.247031 -81.462625 C -156.395469 -80.275125 -153.879844 -77.845438 -152.629844 -76.032938 L -154.047812 -78.087625 C -152.797812 -76.275125 -151.75875 -73.021219 -151.723594 -70.822 L -151.438437 -53.642313 C -151.403281 -51.443094 -152.555625 -50.997781 -154.012656 -52.646219 L -157.317344 -56.388406 C -158.774375 -58.036844 -160.813437 -60.939188 -161.872031 -62.868875 L -160.801719 -60.919656 C -161.860312 -62.849344 -164.379844 -63.7595 -166.426719 -62.950906 L -167.270469 -62.614969 C -169.317344 -61.806375 -171.047812 -59.368875 -171.137656 -57.169656 L -171.266562 -54.095438 C -171.356406 -51.896219 -173.19625 -50.376688 -175.372031 -50.700906 L -169.680625 -49.857156 C -171.856406 -50.177469 -172.582969 -48.989969 -171.301719 -47.200906 L -168.6025 -43.431375 C -167.317344 -41.642313 -164.778281 -39.22825 -162.926719 -38.04075 L -163.278281 -38.267313 C -161.426719 -37.079813 -161.645469 -36.575906 -163.774375 -37.146219 L -167.00875 -38.013406 C -169.13375 -38.583719 -169.176719 -38.450906 -167.1025 -37.716531 L -154.747031 -33.349344 C -152.672812 -32.618875 -152.157187 -33.372781 -153.598594 -35.036844 L -150.395469 -31.337625 C -151.836875 -33.001688 -154.79 -34.322 -156.989219 -34.29075 L -164.981406 -34.16575 C -167.180625 -34.130594 -170.743125 -33.966531 -172.938437 -33.794656 L -168.375937 -34.150125 C -170.57125 -33.97825 -173.997031 -34.525125 -176.028281 -35.372781 L -176.036094 -35.376688 C -178.067344 -36.224344 -181.442344 -37.35325 -183.575156 -37.896219 L -198.965781 -41.814188 C -201.098594 -42.357156 -203.04 -44.568094 -203.297812 -46.755594 L -203.301719 -46.771219 C -203.559531 -48.954813 -202.036094 -50.310281 -199.895469 -49.802469 L -192.403281 -48.0095 C -190.262656 -47.497781 -188.610312 -45.302469 -188.711875 -43.10325 L -189.563437 -24.798563 C -189.665 -22.60325 -191.528281 -20.822 -193.731406 -20.822 L -210.356406 -20.833719 C -212.559531 -20.837625 -213.344687 -22.314188 -212.110312 -24.138406 L -215.336875 -19.364969 C -214.106406 -21.189188 -213.954062 -24.236063 -215.000937 -26.173563 L -220.317344 -36.013406 C -221.360312 -37.950906 -223.934531 -39.072 -226.067344 -38.517313 L -229.442344 -37.638406 C -231.57125 -37.083719 -231.700156 -37.427469 -229.7275 -38.407938 L -215.887656 -45.271219 C -213.918906 -46.251688 -210.774375 -47.931375 -208.864219 -49.029031 L -209.54 -48.642313 C -207.629844 -49.736063 -207.774375 -51.193094 -209.860312 -51.892313 L -227.32125 -57.747781 C -229.407187 -58.450906 -230.075156 -60.47825 -228.813437 -62.282938 L -224.1025 -69.0095 C -222.840781 -70.810281 -223.582969 -72.032938 -225.766562 -71.736063 L -237.707969 -70.118875 C -239.887656 -69.822 -240.895469 -67.966531 -239.961875 -65.974344 L -234.082969 -53.466531 C -233.145469 -51.474344 -232.926719 -48.157938 -233.590781 -46.060281 L -236.69625 -36.271219 C -237.364219 -34.173563 -236.145469 -32.779031 -233.9775 -33.157938 L -235.985312 -32.806375 C -233.817344 -33.185281 -230.649375 -32.400125 -228.911094 -31.052469 L -230.809531 -32.525125 C -229.067344 -31.177469 -225.887656 -29.85325 -223.707969 -29.564188 L -218.157187 -28.833719 C -215.973594 -28.544656 -212.614219 -27.505594 -210.653281 -26.505594 L -199.024375 -20.595438 C -197.063437 -19.595438 -197.254844 -18.900125 -199.450156 -19.036844 L -211.364219 -19.782938 C -213.563437 -19.919656 -213.645469 -20.579813 -211.551719 -21.2595 L -205.309531 -23.286844 C -203.215781 -23.962625 -203.262656 -24.142313 -205.415 -23.681375 L -212.293906 -22.204813 C -214.44625 -21.743875 -214.434531 -21.693094 -212.270469 -22.095438 L -210.672812 -22.396219 C -208.50875 -22.798563 -207.020469 -21.357156 -207.344687 -19.181375 L -208.500937 -11.462625 C -208.825156 -9.286844 -209.750937 -5.864969 -210.567344 -3.822 L -210.297812 -4.497781 C -211.114219 -2.454813 -212.704062 0.724875 -213.848594 2.607687 L -212.79 0.8655 C -213.934531 2.748312 -215.317344 5.998312 -215.875937 8.127219 L -220.454062 25.439719 C -221.016562 27.564719 -222.2275 27.674094 -223.161094 25.681906 L -222.153281 27.830344 C -223.086875 25.838156 -223.88375 22.439719 -223.934531 20.236594 L -224.372031 1.099875 C -224.422812 -1.099344 -222.680625 -2.974344 -220.481406 -3.083719 L -216.69625 -3.279031 C -214.500937 -3.388406 -212.918906 -1.708719 -213.165 0.478781 L -213.243125 1.150656 C -213.493125 3.338156 -212.067344 5.842062 -210.059531 6.748312 L -203.907187 9.517844 C -201.899375 10.420187 -199.954062 12.908469 -199.559531 15.072531 L -200.407187 10.400656 C -200.016562 12.568625 -198.016562 13.724875 -195.942344 12.982687 L -186.168906 9.498312 C -184.094687 8.760031 -180.899375 7.217062 -179.032187 6.053 L -165.348594 -2.474344 C -163.481406 -3.638406 -163.719687 -4.907938 -165.88375 -5.314188 L -171.8525 -6.435281 C -174.016562 -6.837625 -174.094687 -7.786844 -172.032187 -8.552469 L -171.368125 -8.798563 C -169.301719 -9.564188 -167.32125 -11.943094 -166.942344 -14.111063 L -164.399375 -28.650125 C -164.020469 -30.818094 -162.047812 -31.935281 -159.993125 -31.146219 L -162.332969 -32.044656 C -160.278281 -31.255594 -159.94625 -31.798563 -161.594687 -33.263406 L -165.786094 -36.989969 C -167.430625 -38.450906 -168.844687 -37.857156 -168.94625 -35.657938 L -169.54 -22.923563 C -169.641562 -20.724344 -168.192344 -19.849344 -166.297812 -20.970438 L -167.469687 -20.275125 C -165.575156 -21.396219 -162.950156 -20.888406 -161.606406 -19.146219 L -153.961875 -9.239969 C -152.614219 -7.497781 -153.239219 -6.591531 -155.348594 -7.212625 L -163.082969 -9.489969 C -165.19625 -10.114969 -168.50875 -11.400125 -170.489219 -12.368875 L -176.13375 -15.126688 C -178.110312 -16.091531 -179.579062 -15.095438 -179.411094 -12.904031 L -179.672812 -16.329813 C -179.504844 -14.138406 -178.512656 -13.923563 -177.457969 -15.857156 L -178.329062 -14.263406 C -177.274375 -16.197 -178.200156 -17.646219 -180.395469 -17.501688 L -191.075156 -16.810281 C -193.270469 -16.66575 -193.340781 -16.052469 -191.223594 -15.439188 L -187.516562 -14.361063 C -185.399375 -13.747781 -183.430625 -15.017313 -183.114219 -17.197 L -180.895469 -32.5095 C -180.579062 -34.689188 -178.622031 -36.989969 -176.524375 -37.654031 L -179.532187 -36.704813 C -177.434531 -37.368875 -175.782187 -39.689188 -175.840781 -41.888406 L -176.059531 -50.032938 C -176.122031 -52.232156 -176.016562 -52.239969 -175.829062 -50.048563 L -175.297812 -43.837625 C -175.110312 -41.646219 -174.735312 -38.099344 -174.461875 -35.91575 L -175.32125 -42.763406 C -175.047812 -40.579813 -173.618125 -40.122781 -172.125937 -41.739969 L -176.930625 -36.521219 C -175.438437 -38.142313 -174.844687 -41.130594 -175.6025 -43.197 L -181.473594 -59.204813 C -182.231406 -61.271219 -183.79 -64.458719 -184.957969 -66.325906 L -188.059531 -71.282938 C -189.2275 -73.150125 -191.426719 -75.935281 -192.969687 -77.501688 L -198.00875 -82.618875 C -199.555625 -84.185281 -199.817344 -86.943094 -198.598594 -88.775125 L -193.926719 -95.786844 C -192.704062 -97.618875 -193.461875 -99.470438 -195.614219 -99.923563 L -209.891562 -102.935281 C -212.047812 -103.388406 -212.297812 -102.786844 -210.450156 -101.583719 L -204.1025 -97.454813 C -202.254844 -96.255594 -202.543906 -95.232156 -204.743125 -95.169656 L -208.317344 -95.068094 C -210.516562 -95.0095 -214.016562 -95.447 -216.129844 -96.052469 L -226.161094 -98.927469 C -228.278281 -99.532938 -228.504844 -99.04075 -226.668906 -97.825906 L -216.262656 -90.954813 C -214.426719 -89.739969 -211.184531 -89.075906 -209.016562 -89.462625 L -205.176719 -90.157938 C -203.00875 -90.548563 -201.082969 -92.638406 -200.875937 -94.829813 L -200.793906 -95.720438 C -200.582969 -97.911844 -200.098594 -97.931375 -199.707969 -95.767313 L -198.4775 -88.939188 C -198.086875 -86.775125 -197.739219 -86.802469 -197.704062 -89.001688 L -197.575156 -96.517313 C -197.536094 -98.716531 -196.274375 -101.79075 -194.754844 -103.3845 L -193.770469 -104.423563 C -192.250937 -106.017313 -191.3525 -109.060281 -191.75875 -111.224344 L -194.235312 -124.400125 C -194.641562 -126.564188 -193.247031 -128.782938 -191.125937 -129.357156 L -183.297812 -131.482156 C -181.172812 -132.056375 -179.223594 -130.755594 -178.942344 -128.572 L -176.868125 -112.368875 C -176.590781 -110.185281 -176.114219 -110.181375 -175.809531 -112.361063 L -174.840781 -119.2595 C -174.536094 -121.439188 -175.973594 -123.794656 -178.051719 -124.521219 L -189.555625 -128.54075 C -191.63375 -129.267313 -193.747031 -128.122781 -194.278281 -125.989969 L -196.004844 -119.060281 C -196.54 -116.923563 -198.379844 -116.282938 -200.122031 -117.630594 L -205.360312 -121.677469 C -207.1025 -123.021219 -210.297812 -124.150125 -212.500937 -124.197 L -214.493125 -124.239969 C -216.69625 -124.282938 -216.700156 -124.185281 -214.504844 -124.021219 L -194.415 -122.505594 C -192.219687 -122.337625 -192.204062 -121.931375 -194.379844 -121.595438 L -199.825156 -120.751688 C -202.000937 -120.41575 -205.489219 -120.595438 -207.618125 -121.157938 L -206.262656 -120.802469 C -208.391562 -121.364969 -209.856406 -120.052469 -209.54 -117.876688 L -208.426719 -110.255594 C -208.110312 -108.075906 -206.110312 -105.919656 -203.965781 -105.435281 L -201.340781 -104.841531 C -199.19625 -104.357156 -195.672812 -103.868875 -193.473594 -103.751688 L -186.125937 -103.357156 C -183.930625 -103.239969 -180.954062 -104.470438 -179.481406 -106.107156 L -168.094687 -118.767313 C -166.625937 -120.404031 -167.215781 -121.743875 -169.415 -121.763406 L -181.872031 -121.876688 C -184.07125 -121.896219 -184.215781 -121.208719 -182.192344 -120.341531 L -174.25875 -116.947 C -172.235312 -116.079813 -170.231406 -117.126688 -169.782187 -119.279031 L -168.329062 -126.255594 C -167.879844 -128.411844 -169.25875 -130.544656 -171.407187 -131.017313 L -171.454062 -131.029031 C -173.606406 -131.501688 -175.25875 -130.107156 -175.153281 -127.907938 L -175.270469 -130.341531 C -175.165 -128.142313 -175.8525 -127.966531 -176.813437 -129.950906 L -177.122031 -130.583719 C -178.079062 -132.564188 -177.301719 -135.048563 -175.38375 -136.130594 L -163.282187 -142.962625 C -161.364219 -144.04075 -158.032187 -145.044656 -155.836875 -145.200906 L -138.274375 -146.443094 C -136.079062 -146.599344 -134.832969 -145.021219 -135.489219 -142.919656 L -137.407187 -136.775125 C -138.063437 -134.677469 -139.129844 -134.673563 -139.793906 -136.775125 L -139.426719 -135.618875 C -140.090781 -137.716531 -140.668906 -141.204813 -140.723594 -143.404031 L -140.957969 -153.197 C -141.012656 -155.396219 -141.176719 -158.958719 -141.325156 -161.154031 L -142.067344 -172.193094 C -142.215781 -174.388406 -140.551719 -176.142313 -138.3525 -176.107156 L -125.918906 -175.907938 C -123.719687 -175.876688 -122.579062 -177.5095 -123.379844 -179.560281 L -126.653281 -187.982156 C -127.450156 -190.032938 -126.594687 -192.661844 -124.743125 -193.849344 L -116.172812 -199.349344 C -114.32125 -200.536844 -112.520469 -203.263406 -112.157187 -205.431375 L -111.360312 -210.173563 C -110.993125 -212.345438 -109.559531 -215.474344 -108.153281 -217.169656 L -107.879844 -217.497781 C -106.473594 -219.189188 -104.715781 -218.888406 -103.957969 -216.822 L -104.618125 -218.618875 C -103.860312 -216.552469 -104.997031 -215.204813 -107.161094 -215.60325 L -113.235312 -216.72825 C -115.399375 -217.126688 -118.731406 -218.286844 -120.676719 -219.314188 L -123.680625 -220.904031 C -125.625937 -221.935281 -125.493125 -222.255594 -123.387656 -221.618875 L -116.282187 -219.482156 C -114.176719 -218.845438 -111.786094 -216.685281 -110.94625 -214.650125 L -109.668906 -211.556375 C -108.829062 -209.521219 -108.825156 -206.220438 -109.657187 -204.185281 L -117.1025 -185.954813 C -117.938437 -183.919656 -120.204062 -183.072 -122.168906 -184.064188 L -137.524375 -191.833719 C -139.489219 -192.825906 -142.004844 -192.107156 -143.149375 -190.224344 L -151.313437 -176.782938 C -152.457969 -174.904031 -153.954062 -175.068094 -154.661094 -177.154031 L -160.4775 -194.337625 C -161.184531 -196.419656 -161.700156 -199.892313 -161.63375 -202.095438 L -161.442344 -208.435281 C -161.375937 -210.6345 -162.356406 -210.962625 -163.63375 -209.169656 L -171.403281 -198.267313 C -172.680625 -196.474344 -172.063437 -195.700906 -170.028281 -196.536844 L -170.493125 -196.345438 C -168.457969 -197.181375 -167.512656 -196.220438 -168.379844 -194.197 L -166.973594 -197.474344 C -167.840781 -195.450906 -170.13375 -194.626688 -172.090781 -195.630594 L -179.840781 -199.60325 C -181.797812 -200.607156 -184.497031 -202.818094 -185.868125 -204.54075 L -188.704062 -208.10325 C -190.075156 -209.822 -192.090781 -209.681375 -193.204062 -207.782938 L -193.309531 -207.599344 C -194.422812 -205.700906 -197.07125 -203.79075 -199.223594 -203.329813 L -210.997031 -200.810281 C -213.149375 -200.349344 -214.043906 -198.407938 -212.997031 -196.474344 L -204.879844 -181.501688 C -203.829062 -179.564188 -201.817344 -176.642313 -200.387656 -174.970438 L -204.19625 -179.419656 C -202.766562 -177.747781 -202.9775 -177.536844 -204.668906 -178.943094 L -215.309531 -187.802469 C -217.000937 -189.208719 -218.4775 -188.572 -218.606406 -186.372781 L -218.8525 -182.157938 C -218.981406 -179.962625 -219.473594 -179.919656 -219.954062 -182.068094 L -223.532187 -198.130594 C -224.012656 -200.279031 -223.563437 -200.447 -222.532187 -198.501688 L -223.844687 -200.974344 C -222.809531 -199.032938 -222.055625 -195.673563 -222.153281 -193.474344 L -222.422812 -187.431375 C -222.520469 -185.232156 -220.895469 -183.982156 -218.797812 -184.638406 L -203.911094 -189.279031 C -201.813437 -189.935281 -199.086875 -191.927469 -197.825156 -193.732156 L -190.192344 -204.646219 C -188.934531 -206.447 -189.641562 -207.47825 -191.778281 -206.950906 L -200.29 -204.833719 C -202.426719 -204.302469 -205.942344 -203.845438 -208.141562 -203.814188 L -205.563437 -203.85325 C -207.766562 -203.818094 -210.200156 -205.454813 -211.000937 -207.505594 L -210.657187 -206.626688 C -211.457969 -208.673563 -210.329062 -210.443094 -208.129844 -210.572 L -205.700156 -210.712625 C -203.504844 -210.841531 -203.500937 -210.818094 -205.69625 -210.654031 L -206.372031 -210.607156 C -208.567344 -210.443094 -209.051719 -209.087625 -207.450156 -207.575906 L -209.555625 -209.564188 C -207.957969 -208.052469 -206.344687 -205.072 -205.954062 -202.904031 L -204.793906 -196.447 C -204.403281 -194.282938 -203.000937 -191.111063 -201.657187 -189.368875 L -195.672812 -181.595438 C -194.329062 -179.85325 -191.457969 -178.454813 -189.25875 -178.474344 L -178.184531 -178.575906 C -175.981406 -178.595438 -175.856406 -177.947 -177.899375 -177.130594 L -187.668906 -173.216531 C -189.711875 -172.400125 -191.090781 -169.974344 -190.750937 -167.798563 L -189.04 -156.833719 C -188.700156 -154.657938 -190.020469 -153.700906 -191.985312 -154.693094 L -203.184531 -160.345438 C -205.149375 -161.337625 -208.457969 -161.661844 -210.579062 -161.072 L -223.262656 -157.529031 C -225.38375 -156.939188 -225.418906 -157.056375 -223.344687 -157.79075 L -215.051719 -160.72825 C -212.9775 -161.466531 -211.301719 -160.275125 -211.305625 -158.075906 L -211.332969 -144.814188 C -211.336875 -142.614969 -211.641562 -142.587625 -212.016562 -144.7595 L -213.305625 -152.212625 C -213.680625 -154.380594 -212.489219 -157.111063 -210.641562 -158.310281 L -197.872031 -166.618875 C -196.028281 -167.818094 -195.907187 -167.657938 -197.606406 -166.2595 L -203.110312 -161.72825 C -204.809531 -160.325906 -204.403281 -159.193094 -202.204062 -159.193094 L -201.899375 -159.193094 C -199.69625 -159.193094 -196.161094 -158.849344 -194.004844 -158.419656 L -192.903281 -158.204813 C -190.743125 -157.775125 -190.586875 -158.236063 -192.547812 -159.232156 L -198.801719 -162.396219 C -200.766562 -163.392313 -201.411094 -165.708719 -200.239219 -167.572 L -196.731406 -173.161844 C -195.563437 -175.029031 -196.067344 -175.501688 -197.856406 -174.224344 L -203.63375 -170.099344 C -205.422812 -168.818094 -206.813437 -165.997781 -206.735312 -163.798563 L -206.649375 -161.310281 C -206.57125 -159.111063 -206.848594 -159.079813 -207.262656 -161.239969 L -207.231406 -161.064188 C -207.645469 -163.224344 -208.606406 -166.650125 -209.372031 -168.712625 L -211.125937 -173.419656 C -211.891562 -175.482156 -213.032187 -178.861063 -213.672812 -180.970438 L -212.020469 -175.529031 C -212.661094 -177.6345 -212.000937 -180.681375 -210.543906 -182.333719 L -215.555625 -176.638406 C -214.1025 -178.29075 -211.938437 -181.118875 -210.719687 -182.950906 L -205.504844 -190.798563 C -204.286094 -192.630594 -201.551719 -194.470438 -199.395469 -194.904031 L -184.297812 -197.943094 C -182.141562 -198.376688 -180.024375 -200.47825 -179.575156 -202.630594 L -179.911094 -201.021219 C -179.461875 -203.173563 -177.348594 -205.271219 -175.188437 -205.700906 L -180.844687 -204.572 C -178.688437 -205.001688 -177.223594 -207.114969 -177.575156 -209.286844 L -179.528281 -221.298563 C -179.879844 -223.474344 -178.473594 -224.673563 -176.38375 -223.97825 L -173.668906 -223.079813 C -171.579062 -222.3845 -169.165 -220.193094 -168.274375 -218.181375 L -165.536094 -211.989969 C -164.645469 -209.97825 -163.848594 -206.560281 -163.75875 -204.364969 L -163.735312 -203.85325 C -163.645469 -201.654031 -165.2275 -199.212625 -167.274375 -198.400125 L -168.04 -198.095438 C -170.086875 -197.282938 -171.743125 -194.837625 -171.735312 -192.638406 L -171.735312 -190.997781 C -171.731406 -188.794656 -170.086875 -187.712625 -168.059531 -188.575906 L -159.707969 -192.138406 C -157.684531 -193.001688 -155.942344 -191.919656 -155.813437 -189.724344 L -155.110312 -177.505594 C -154.985312 -175.306375 -156.657187 -173.341531 -158.844687 -173.118875 L -157.395469 -173.267313 C -159.582969 -173.04075 -161.422812 -171.075906 -161.504844 -168.876688 L -161.399375 -171.755594 C -161.481406 -169.556375 -159.817344 -167.329813 -157.684531 -166.779031 L -154.149375 -165.868875 C -152.016562 -165.322 -150.301719 -166.661844 -150.317344 -168.861063 L -150.457969 -188.622781 C -150.473594 -190.825906 -149.176719 -191.396219 -147.559531 -189.904031 L -144.9775 -187.513406 C -143.360312 -186.021219 -143.387656 -183.626688 -145.036094 -182.169656 L -153.743125 -174.470438 C -155.391562 -173.013406 -158.500937 -171.650125 -160.692344 -171.423563 L -159.872031 -171.5095 C -162.063437 -171.282938 -162.176719 -171.755594 -160.129844 -172.560281 L -155.395469 -174.419656 C -153.348594 -175.224344 -149.961875 -175.423563 -147.832969 -174.868875 L -136.430625 -171.876688 C -134.301719 -171.322 -132.69625 -169.087625 -132.844687 -166.892313 L -133.309531 -159.993875 C -133.457969 -157.798563 -133.594687 -154.236063 -133.618125 -152.032938 L -133.747031 -139.107156 C -133.770469 -136.907938 -132.200156 -134.314188 -130.239219 -133.314188 L -117.207969 -126.677469 C -115.247031 -125.677469 -115.13375 -123.864969 -116.954062 -122.630594 L -128.575156 -114.72825 C -130.395469 -113.489969 -130.44625 -113.560281 -128.684531 -114.880594 L -129.161094 -114.525125 C -127.399375 -115.845438 -126.141562 -115.142313 -126.348594 -112.950906 L -127.004844 -105.97825 C -127.211875 -103.786844 -125.747031 -101.29075 -123.731406 -100.400125 L -120.629844 -99.032938 C -118.618125 -98.146219 -118.622031 -96.716531 -120.645469 -95.845438 L -127.00875 -93.099344 C -129.028281 -92.22825 -131.340781 -93.173563 -132.168906 -95.212625 L -132.899375 -97.001688 C -133.7275 -99.04075 -136.176719 -100.532938 -138.368125 -100.337625 L -148.868125 -99.400125 C -151.059531 -99.204813 -151.661094 -100.388406 -150.211875 -102.04075 L -142.1025 -111.302469 C -140.653281 -112.958719 -139.532187 -112.517313 -139.598594 -110.318094 L -140.086875 -93.966531 C -140.153281 -91.767313 -139.422812 -88.380594 -138.457969 -86.404031 L -131.731406 -72.626688 C -130.766562 -70.650125 -128.94625 -70.497781 -127.668906 -72.29075 L -118.950156 -84.501688 C -117.668906 -86.29075 -115.051719 -88.568094 -113.1025 -89.587625 L -100.403281 -96.212625 C -98.450156 -97.232156 -97.63375 -99.669656 -98.57125 -101.661844 L -103.118125 -111.271219 C -104.055625 -113.263406 -106.086875 -116.130594 -107.649375 -117.681375 L -109.368125 -119.3845 C -110.926719 -120.935281 -112.270469 -120.411844 -112.360312 -118.212625 L -112.329062 -118.974344 C -112.418906 -116.775125 -113.668906 -113.654031 -115.118125 -111.997781 L -112.137656 -115.400125 C -113.586875 -113.743875 -114.372031 -114.142313 -113.887656 -116.29075 L -110.270469 -132.376688 C -109.786094 -134.521219 -111.079062 -135.673563 -113.153281 -134.943094 L -116.610312 -133.72825 C -118.684531 -132.997781 -119.770469 -130.724344 -119.036094 -128.650125 L -119.329062 -129.47825 C -118.590781 -127.404031 -119.7275 -125.302469 -121.868125 -124.79075 L -137.520469 -121.021219 C -139.661094 -120.505594 -143.079062 -120.685281 -145.149375 -121.423563 L -163.141562 -127.833719 C -165.215781 -128.572 -167.79 -127.626688 -168.891562 -125.724344 L -169.090781 -125.376688 C -170.19625 -123.470438 -170.524375 -123.618875 -169.825156 -125.704813 L -169.3525 -127.126688 C -168.653281 -129.212625 -167.129844 -129.400125 -165.950156 -127.544656 L -158.379844 -115.657938 C -157.19625 -113.802469 -156.024375 -110.525125 -155.762656 -108.341531 L -156.254844 -112.435281 C -155.993125 -110.251688 -157.563437 -108.407938 -159.762656 -108.322 L -175.707969 -107.677469 C -177.907187 -107.587625 -177.981406 -106.997781 -175.875937 -106.361063 L -175.961875 -106.3845 C -173.856406 -105.747781 -173.934531 -105.224344 -176.13375 -105.220438 L -189.161094 -105.193094 C -191.360312 -105.185281 -193.004844 -103.404031 -192.829062 -101.208719 L -191.930625 -90.025125 C -191.754844 -87.829813 -193.399375 -86.068094 -195.598594 -86.087625 L -194.399375 -86.075906 C -196.6025 -86.095438 -198.215781 -87.8845 -198.004844 -90.075906 L -197.403281 -96.294656 C -197.192344 -98.486063 -196.418906 -101.939188 -195.672812 -104.0095 L -194.122031 -108.325906 C -193.379844 -110.396219 -193.899375 -113.458719 -195.286094 -115.169656 L -199.243125 -120.048563 C -200.629844 -121.7595 -202.219687 -124.868875 -202.793906 -126.993875 L -203.88375 -131.005594 C -204.457969 -133.130594 -203.922812 -133.372781 -202.688437 -131.552469 L -199.028281 -126.146219 C -197.793906 -124.322 -196.114219 -124.493875 -195.278281 -126.532938 L -197.149375 -121.97825 C -196.313437 -124.013406 -193.856406 -125.525125 -191.661094 -125.35325 L -174.672812 -124.017313 C -172.4775 -123.845438 -170.438437 -125.470438 -170.118125 -127.646219 L -169.567344 -131.396219 C -169.247031 -133.572 -170.766562 -135.47825 -172.961875 -135.654031 L -185.747031 -136.681375 C -187.942344 -136.857156 -187.938437 -137.10325 -185.739219 -137.22825 L -170.684531 -138.095438 C -168.489219 -138.220438 -165.864219 -136.747781 -164.829062 -134.810281 L -160.844687 -127.361063 C -159.805625 -125.423563 -160.661094 -124.404031 -162.750937 -125.087625 L -174.122031 -128.798563 C -176.211875 -129.47825 -176.266562 -130.724344 -174.235312 -131.575906 L -175.079062 -131.224344 C -173.047812 -132.075906 -173.180625 -132.91575 -175.375937 -133.099344 L -169.250937 -132.583719 C -171.442344 -132.767313 -173.493125 -134.681375 -173.829062 -136.857156 L -174.395469 -140.54075 C -174.731406 -142.716531 -173.219687 -144.447 -171.020469 -144.404031 L -159.672812 -144.181375 C -157.469687 -144.138406 -155.860312 -142.325906 -156.075156 -140.138406 L -157.028281 -130.423563 C -157.243125 -128.236063 -155.63375 -126.486063 -153.434531 -126.517313 L -141.754844 -126.681375 C -139.551719 -126.712625 -139.481406 -126.243875 -141.598594 -125.6345 L -154.793906 -121.822 C -156.907187 -121.212625 -159.434531 -119.130594 -160.442344 -117.173563 L -158.516562 -120.919656 C -159.524375 -118.958719 -159.403281 -118.892313 -158.250937 -120.767313 L -158.555625 -120.271219 C -157.403281 -122.146219 -156.340781 -125.447 -156.184531 -127.642313 L -155.520469 -137.083719 C -155.364219 -139.279031 -156.750937 -140.114969 -158.618125 -138.950906 L -167.340781 -133.505594 C -169.207969 -132.341531 -168.938437 -131.306375 -166.743125 -131.193094 L -148.829062 -130.279031 C -146.629844 -130.169656 -145.844687 -131.556375 -147.075156 -133.380594 L -143.317344 -127.810281 C -144.547812 -129.6345 -147.329062 -131.138406 -149.532187 -131.173563 L -143.504844 -131.083719 C -145.704062 -131.114969 -148.750937 -132.404031 -150.305625 -133.962625 L -160.536094 -144.208719 C -162.090781 -145.767313 -162.961875 -145.286844 -162.489219 -143.138406 L -159.149375 -128.072 C -158.672812 -125.923563 -158.247031 -125.962625 -158.200156 -128.16575 L -158.032187 -135.864969 C -157.981406 -138.064188 -156.399375 -140.739969 -154.493125 -141.845438 L -147.899375 -145.661844 C -145.997031 -146.763406 -142.88375 -148.5095 -140.954062 -149.564188 L -142.891562 -148.505594 C -140.961875 -149.560281 -140.063437 -148.7595 -140.887656 -146.720438 L -146.536094 -132.775125 C -147.364219 -130.736063 -147.938437 -130.864969 -147.82125 -133.064188 L -147.719687 -135.001688 C -147.6025 -137.200906 -149.098594 -138.169656 -151.059531 -137.169656 L -156.332969 -134.482156 C -158.293906 -133.486063 -158.266562 -131.923563 -156.270469 -131.001688 L -157.969687 -131.786844 C -155.973594 -130.861063 -153.25875 -128.704813 -151.907187 -126.966531 L -143.918906 -116.693094 C -142.567344 -114.954813 -142.465781 -112.064188 -143.692344 -110.236063 L -146.629844 -105.864969 C -147.856406 -104.036844 -149.653281 -100.962625 -150.645469 -98.997781 L -151.606406 -97.091531 C -152.594687 -95.126688 -155.180625 -93.462625 -157.379844 -93.372781 L -156.610312 -93.404031 C -158.809531 -93.314188 -162.055625 -92.220438 -163.860312 -90.958719 L -165.297812 -89.954813 C -167.1025 -88.693094 -169.915 -88.837625 -171.582969 -90.275125 L -175.442344 -93.611063 C -177.106406 -95.048563 -180.204062 -96.575906 -182.360312 -97.021219 L -186.075156 -97.786844 C -188.2275 -98.232156 -191.575156 -99.3845 -193.551719 -100.357156 L -207.329062 -107.154031 C -209.305625 -108.126688 -209.172812 -109.349344 -207.04 -109.888406 L -207.293906 -109.825906 C -205.161094 -110.364969 -202.168906 -109.54075 -200.610312 -107.982156 L -190.848594 -98.232156 " transform="matrix(1, 0, 0, -1, 245.04, 32.678)"/>
</g>
</svg>
